<?xml version="1.0" standalone="no"?>
<!DOCTYPE svg PUBLIC "-//W3C//DTD SVG 20010904//EN"
 "http://www.w3.org/TR/2001/REC-SVG-20010904/DTD/svg10.dtd">
<svg version="1.0" xmlns="http://www.w3.org/2000/svg"
 width="720.000000pt" height="1068.000000pt" viewBox="0 0 720.000000 1068.000000"
 preserveAspectRatio="xMidYMid meet">

<g transform="translate(0.000000,1068.000000) scale(0.100000,-0.100000)"
fill="#000000" stroke="none">
<path d="M1965 8483 c-663 -368 -1190 -936 -1465 -1576 -101 -236 -190 -543
-240 -827 -69 -395 -78 -820 -24 -1160 16 -105 64 -314 70 -307 2 2 -1 48 -6
103 -6 54 -13 216 -17 359 -8 369 15 605 78 799 55 170 58 167 59 -55 1 -938
268 -1798 751 -2419 86 -111 284 -317 378 -394 150 -123 365 -249 537 -316 77
-30 252 -80 280 -80 8 0 -8 27 -36 62 -87 108 -159 273 -201 463 -27 117 -37
426 -20 588 14 132 60 367 95 487 13 47 27 106 31 133 l7 47 -61 65 c-156 167
-246 415 -260 715 l-6 145 -32 -46 c-37 -54 -75 -143 -97 -231 -21 -84 -46
-251 -46 -309 0 -25 -3 -75 -7 -110 l-7 -64 -7 45 c-14 83 -10 395 6 517 33
253 102 493 201 702 30 63 54 116 54 118 0 2 -21 -10 -46 -27 -66 -46 -221
-118 -284 -131 -88 -19 -191 -7 -247 27 -114 71 -181 250 -184 489 l0 90 -25
-70 c-115 -328 -123 -886 -19 -1395 33 -165 94 -395 144 -549 23 -68 39 -126
37 -128 -5 -5 -100 143 -146 230 -84 156 -153 361 -165 491 -6 59 -4 54 69
-124 76 -187 92 -216 56 -103 -27 86 -67 283 -91 443 -15 98 -22 210 -26 407
-6 298 3 445 43 683 43 259 168 752 243 961 28 76 28 81 8 54 -196 -263 -333
-359 -397 -277 -20 24 -22 36 -17 112 5 97 19 144 86 285 184 388 544 786 966
1068 150 100 145 102 -20 10z"/>
<path d="M5976 7923 c113 -205 205 -450 243 -647 12 -59 21 -117 21 -130 0
-15 25 -48 73 -97 78 -80 132 -174 163 -284 22 -82 30 -297 14 -405 -32 -218
-138 -495 -292 -765 -65 -113 -260 -405 -268 -400 -4 3 -6 73 -3 157 4 150 -8
358 -19 328 -3 -8 -22 -67 -43 -130 -68 -213 -206 -457 -364 -645 -94 -111
-242 -253 -391 -376 -157 -129 -398 -369 -516 -515 -278 -342 -424 -636 -424
-855 0 -158 61 -243 210 -295 46 -16 84 -19 227 -19 100 0 163 -3 150 -8 -67
-25 -173 -40 -287 -40 -108 -1 -133 2 -184 22 -245 97 -266 371 -62 786 89
179 188 330 341 520 147 183 212 274 297 417 92 156 162 306 208 447 53 163
65 237 65 391 0 160 -14 223 -80 357 -121 246 -352 363 -751 380 l-141 6 -48
79 -48 79 63 131 c57 121 62 135 57 180 -8 65 -42 138 -123 261 -121 185 -317
417 -351 417 -66 0 -307 -222 -408 -375 -60 -92 -181 -322 -173 -331 3 -2 24
19 48 47 130 154 348 269 511 269 70 0 115 -27 147 -90 33 -64 26 -171 -19
-295 -31 -86 -37 -94 -150 -213 -462 -482 -861 -1101 -1108 -1720 -64 -161
-76 -227 -46 -252 9 -7 57 -17 108 -21 357 -33 605 -216 663 -488 29 -137 11
-328 -45 -471 -177 -458 -479 -823 -826 -1001 -52 -27 -91 -50 -87 -53 13 -8
285 -65 407 -85 789 -132 1503 -117 2120 44 1085 283 1763 1002 2020 2141 53
239 92 536 100 779 l5 150 -25 -119 c-79 -366 -271 -757 -515 -1049 -45 -54
-84 -96 -87 -94 -2 3 4 22 15 44 43 84 164 402 225 589 285 876 331 1670 132
2284 -137 424 -381 755 -751 1023 l-52 37 54 -97z"/>
<path d="M3085 7236 c-119 -99 -323 -307 -418 -426 -239 -297 -421 -657 -490
-970 -38 -169 -48 -266 -48 -439 0 -173 18 -323 57 -481 31 -127 114 -355 124
-343 4 4 15 37 25 73 26 97 100 281 162 403 110 216 242 395 409 557 60 58
107 110 105 115 -1 6 -12 55 -22 110 -40 206 -42 527 -4 743 19 111 19 113 -6
77 -39 -58 -93 -171 -120 -255 -26 -77 -28 -81 -29 -45 0 60 27 216 59 340 53
201 135 385 247 548 29 42 52 77 51 77 -1 0 -47 -38 -102 -84z"/>
<path d="M3580 6705 c-195 -69 -398 -251 -435 -390 -23 -89 -21 -227 4 -300
21 -60 69 -130 89 -130 11 0 405 471 448 536 34 50 51 146 36 196 -16 51 -32
70 -73 87 -28 11 -40 11 -69 1z"/>
</g>
</svg>
