<svg version="1.1" id="Layer_1" xmlns="http://www.w3.org/2000/svg" xmlns:xlink="http://www.w3.org/1999/xlink" x="0px" y="0px" viewBox="0 0 500 500" style="width: 166px;" xml:space="preserve" data-imageid="ramen-96" imageName="Ramen" class="illustrations_image">
<style type="text/css">
	.st0_ramen-96{fill:#231F20;}
	.st1_ramen-96{fill:#FFFFFF;}
	.st2_ramen-96{fill:#D1D3D4;}
	.st3_ramen-96{fill:#68E1FD;}
</style>
<g id="Bowl_ramen-96">
	<path class="st0_ramen-96" d="M306.9,343.5v47.8c0,5.2-3,9.9-7.8,12c-17.7,7.8-38.1,12.5-61.3,12.5s-43.6-4.6-61.3-12.5&#10;&#9;&#9;c-4.7-2.1-7.8-6.8-7.8-12v-47.8H306.9z"/>
	<path class="st0_ramen-96" d="M237.8,416.5c-22.1,0-42.8-4.2-61.6-12.5c-5-2.2-8.2-7.2-8.2-12.7v-47.8c0-0.4,0.3-0.8,0.8-0.8h138.2&#10;&#9;&#9;c0.4,0,0.7,0.3,0.8,0.8v47.8c0,5.5-3.2,10.5-8.2,12.7C280.6,412.3,259.9,416.5,237.8,416.5z M169.5,344.2v47.1&#10;&#9;&#9;c0,4.9,2.9,9.3,7.3,11.3c18.6,8.2,39.1,12.4,61,12.4s42.4-4.2,61-12.4c4.5-2,7.3-6.4,7.3-11.3v-47.1H169.5z"/>
	<path class="st1_ramen-96" d="M413.5,230c0,66.5-58.1,169.9-175.7,169.9S62.1,296.5,62.1,230s78.7-120.5,175.7-120.5S413.5,163.4,413.5,230z&#10;&#9;&#9;"/>
	<path class="st0_ramen-96" d="M237.8,400.6c-66.9,0-109-32.8-132.5-60.2C78.3,308.7,61.4,266.4,61.4,230c0-66.8,79.1-121.2,176.4-121.2&#10;&#9;&#9;S414.2,163.2,414.2,230c0,36.4-16.8,78.7-43.9,110.4C346.8,367.8,304.7,400.6,237.8,400.6z M237.8,110.2&#10;&#9;&#9;c-96.5,0-175,53.7-175,119.8c0,36.1,16.7,78,43.6,109.5c23.3,27.2,65.1,59.8,131.4,59.8s108.1-32.5,131.4-59.8&#10;&#9;&#9;c26.9-31.4,43.6-73.4,43.6-109.4C412.8,163.9,334.3,110.2,237.8,110.2z"/>
	<path class="st2_ramen-96" d="M237.8,151.8c86.5,0,158.4,42.9,173,99.4c1.8-6.9,2.7-14,2.7-21.1c0-66.5-78.7-120.5-175.7-120.5&#10;&#9;&#9;S62.1,163.4,62.1,230c0,7.1,0.9,14.2,2.7,21.1C79.4,194.6,151.3,151.8,237.8,151.8z"/>
	<path class="st0_ramen-96" d="M410.8,251.8c-0.3,0-0.6-0.2-0.7-0.5c-14.8-57.3-87.2-98.8-172.3-98.8S80.3,194,65.5,251.3&#10;&#9;&#9;c-0.1,0.4-0.6,0.6-0.9,0.4c-0.2-0.1-0.3-0.2-0.4-0.4c-1.8-7-2.7-14.1-2.7-21.3c0-66.8,79.1-121.2,176.4-121.2&#10;&#9;&#9;S414.2,163.2,414.2,230c0,7.2-0.9,14.3-2.7,21.3C411.4,251.6,411.1,251.8,410.8,251.8z M237.8,110.2c-96.5,0-175,53.7-175,119.8&#10;&#9;&#9;c0,6.2,0.7,12.3,2,18.3c16.4-56.5,88.6-97.2,173-97.2s156.5,40.7,172.9,97.2c1.3-6,2-12.2,2-18.3&#10;&#9;&#9;C412.8,163.9,334.3,110.2,237.8,110.2L237.8,110.2z"/>
	<path class="st2_ramen-96" d="M239.2,369.3c-89.3,0-143.1-47.7-143.6-48.2c-0.2-0.3-0.1-0.8,0.2-1c0.2-0.2,0.5-0.2,0.8,0&#10;&#9;&#9;c0.5,0.5,54,47.8,142.7,47.8s145.3-52.8,145.9-53.3c0.3-0.3,0.7-0.3,1,0c0.3,0.3,0.3,0.7,0,1c0,0,0,0,0,0&#10;&#9;&#9;C385.5,316.2,328.6,369.3,239.2,369.3z"/>
	<path class="st1_ramen-96" d="M413.5,232.1c0,66.5-78.7,120.5-175.7,120.5c-34.8,0-67.2-6.9-94.6-18.9c-7.4-3.2-14.6-6.9-21.5-11.1&#10;&#9;&#9;c-36.6-22.1-59.7-54.4-59.7-90.4c0-66.6,78.7-120.5,175.7-120.5S413.5,165.5,413.5,232.1z"/>
	<path class="st0_ramen-96" d="M237.8,353.2c-33.7,0-66.5-6.6-94.8-19c-7.4-3.2-14.6-7-21.6-11.1c-38.1-23-60-56.2-60-91.1&#10;&#9;&#9;c0-66.8,79.1-121.2,176.4-121.2S414.2,165.2,414.2,232S335.1,353.2,237.8,353.2z M237.8,112.2c-96.5,0-175,53.7-175,119.8&#10;&#9;&#9;c0,34.4,21.6,67.1,59.3,89.9c6.9,4.2,14,7.9,21.4,11.1c28.1,12.3,60.7,18.9,94.3,18.9c96.5,0,175-53.7,175-119.8&#10;&#9;&#9;S334.3,112.3,237.8,112.2L237.8,112.2z"/>
</g>
<g id="Noodle_ramen-96">
	<path class="st1_ramen-96" d="M213.2,224.4h-1.1c-4.7-0.1-8-1.3-10.2-3.6c-2.8-3-3.4-7.8-1.7-12.8c2.6-7.6,9.6-14,18.3-16.7&#10;&#9;&#9;c7.3-2.2,15.6-2.2,24.7,0.3l0.3,0.1c2.7,0.7,5.4,1.5,7.4,0.4c2.4-1.4,2.7-5.2,1.9-8.2c-0.3-1.1-0.7-2.2-1.1-3.4&#10;&#9;&#9;c-1.1-2.6-1.7-5.4-1.7-8.2c0.2-6.6,5.5-11.5,10.7-13.4c4.6-1.7,10-1.8,16.8-0.4c8.7,1.8,17,5.4,24.4,10.3l1.7,1.2&#10;&#9;&#9;c2.3,1.8,4.9,3.2,7.6,4.2c2.8,0.9,6.5,0.5,8.2-1.9c0.6-0.8,1.7-1,2.6-0.4s1,1.7,0.4,2.6c-2.8,3.9-8.3,4.5-12.3,3.3&#10;&#9;&#9;c-3.1-1.1-6-2.7-8.6-4.7c-0.5-0.4-1.1-0.8-1.6-1.1c-7-4.7-14.8-8.1-23.1-9.8c-6.2-1.3-10.9-1.2-14.8,0.2c-4.8,1.7-8.2,5.9-8.3,10.1&#10;&#9;&#9;c0.1,2.4,0.6,4.7,1.5,6.9c0.4,1.2,0.8,2.4,1.2,3.7c1.1,4.4,0.5,10-3.7,12.3c-3.3,1.9-7.1,0.8-10.1,0l-0.3-0.1&#10;&#9;&#9;c-8.4-2.3-16-2.4-22.6-0.3c-7.6,2.3-13.6,7.9-15.9,14.4c-1,2.9-1.3,6.8,0.9,9.1c1.5,1.6,3.9,2.4,7.6,2.4c5.7,0.1,11.4-0.9,16.7-3.1&#10;&#9;&#9;c3-1.3,5.9-2.8,8.8-4.5c2.9-1.7,5.9-3.2,9-4.6c12.8-5.2,27.3-4.5,39.4,2.1c0.9,0.5,1.2,1.6,0.7,2.5c-0.5,0.9-1.6,1.2-2.5,0.7&#10;&#9;&#9;c-11.2-6-24.5-6.7-36.2-1.9c-3,1.3-5.8,2.8-8.6,4.4c-3,1.7-6,3.3-9.2,4.7C224.9,223.2,219.1,224.4,213.2,224.4z"/>
	<path class="st2_ramen-96" d="M213.2,225.1h-1.1c-4.9-0.1-8.4-1.4-10.7-3.8c-3-3.2-3.7-8.2-1.9-13.5c2.7-7.8,9.9-14.4,18.7-17.1&#10;&#9;&#9;c7.4-2.3,15.9-2.2,25.1,0.3l0.3,0.1c2.5,0.7,5.1,1.4,6.8,0.4c2-1.1,2.3-4.6,1.6-7.5c-0.3-1.1-0.6-2.2-1-3.3&#10;&#9;&#9;c-1.1-2.7-1.7-5.6-1.8-8.5c0.2-7,5.8-12.1,11.2-14c4.8-1.7,10.2-1.9,17.2-0.4c8.8,1.9,17.2,5.4,24.7,10.5l1.7,1.2&#10;&#9;&#9;c2.2,1.8,4.7,3.2,7.4,4.1c2.5,0.8,6,0.4,7.5-1.6c0.8-1.2,2.3-1.5,3.5-0.8c1.2,0.8,1.5,2.3,0.8,3.5c0,0.1-0.1,0.1-0.2,0.2&#10;&#9;&#9;c-3,4.2-8.9,4.8-13,3.5c-3.2-1.1-6.1-2.8-8.8-4.8l-1.6-1.1c-6.9-4.7-14.7-8-22.9-9.7c-6-1.3-10.6-1.2-14.4,0.2&#10;&#9;&#9;c-4.5,1.6-7.7,5.5-7.8,9.4c0.1,2.3,0.6,4.5,1.5,6.6c0.4,1.1,0.8,2.4,1.2,3.7c1.2,4.7,0.4,10.6-4,13.1c-3.5,2-7.5,0.9-10.7,0.1&#10;&#9;&#9;l-0.3-0.1c-8.3-2.2-15.8-2.3-22.2-0.3c-7.4,2.3-13.3,7.6-15.4,13.9c-0.9,2.7-1.2,6.3,0.8,8.4c1.3,1.4,3.6,2.1,7.1,2.2&#10;&#9;&#9;c5.6,0.1,11.2-0.9,16.4-3.1c3-1.3,5.9-2.8,8.7-4.4c2.9-1.7,6-3.3,9.1-4.6c13-5.3,27.7-4.5,40,2.1c1.2,0.7,1.7,2.2,1,3.4&#10;&#9;&#9;c-0.7,1.2-2.2,1.7-3.4,1c-11-5.9-24.1-6.6-35.6-1.9c-2.9,1.3-5.7,2.7-8.5,4.4c-3,1.8-6.1,3.4-9.3,4.8&#10;&#9;&#9;C225.1,223.9,219.2,225.1,213.2,225.1z M229.7,190.4c-3.7,0-7.4,0.5-11,1.6c-8.4,2.6-15.3,8.8-17.8,16.2c-1.6,4.8-1.1,9.3,1.6,12.1&#10;&#9;&#9;c2,2.1,5.2,3.2,9.7,3.4c6.1,0.1,12.2-1,17.9-3.3c3.1-1.4,6.1-2.9,9.1-4.6c2.8-1.7,5.7-3.1,8.7-4.5c12-4.9,25.5-4.1,36.9,2&#10;&#9;&#9;c0.3,0.2,0.6,0.2,0.9,0.1c0.3-0.1,0.5-0.3,0.7-0.5c0.3-0.5,0.1-1.2-0.4-1.5c-12-6.5-26.2-7.2-38.8-2.1c-3.1,1.3-6,2.9-8.9,4.6&#10;&#9;&#9;c-2.9,1.7-5.8,3.2-8.9,4.5c-5.4,2.2-11.2,3.3-17,3.2c-3.9-0.1-6.5-0.9-8.1-2.7c-2.4-2.6-2.1-6.7-1.1-9.8&#10;&#9;&#9;c2.3-6.7,8.6-12.4,16.4-14.8c6.8-2.1,14.5-2,23,0.3l0.3,0.1c2.9,0.8,6.6,1.8,9.6,0.1c3.8-2.2,4.4-7.4,3.3-11.6&#10;&#9;&#9;c-0.3-1.2-0.7-2.5-1.1-3.6c-0.9-2.3-1.5-4.7-1.6-7.1c0.1-4.5,3.8-8.9,8.8-10.7c4.1-1.5,8.9-1.6,15.2-0.2c8.4,1.8,16.3,5.1,23.4,9.9&#10;&#9;&#9;c0.5,0.4,1,0.7,1.6,1.1c2.6,1.9,5.3,3.7,8.5,4.7c3.7,1.1,8.9,0.6,11.5-3c0.3-0.5,0.2-1.2-0.3-1.6c-0.5-0.3-1.2-0.2-1.5,0.3&#10;&#9;&#9;c-1.9,2.6-6,3.1-9,2.2c-2.8-0.9-5.2-2.5-7.8-4.3l-1.7-1.1c-7.3-4.9-15.5-8.4-24.2-10.2c-6.7-1.4-12-1.3-16.4,0.3&#10;&#9;&#9;c-5,1.8-10,6.5-10.2,12.8c0.1,2.7,0.6,5.4,1.7,7.9c0.4,1.2,0.8,2.3,1.1,3.5c0.8,3.3,0.5,7.5-2.3,9c-2.2,1.2-5.1,0.5-7.9-0.3&#10;&#9;&#9;l-0.3-0.1C238.7,191,234.2,190.4,229.7,190.4L229.7,190.4z"/>
	<path class="st1_ramen-96" d="M201.7,260.5c-1.8,0-3.6-0.4-5.2-1.3c-3.2-1.9-5.2-5.8-5.4-10.7c-0.4-9.1,4.3-16.9,11-23.8&#10;&#9;&#9;c-3.9-3.4-7.8-7-10-11.9c-4.6-10.2-0.1-22.1,10.1-26.7c4.1-1.9,8.8-2.3,13.2-1.2c5.8,1.4,10.4,5.2,14.9,8.9c4.9,4,9.6,7.8,15.3,8.3&#10;&#9;&#9;c6.9,0.4,13.2-4.1,15-10.8c0.4-2.1,0.6-4.2,0.7-6.4c0.3-5.2,0.6-10.6,5.1-13.7c5.6-3.7,13-0.4,17.1,5c1.6,2.2,3,4.6,4.1,7.1&#10;&#9;&#9;c1.2,2.6,2.7,5.1,4.5,7.4c5.5,6.6,16.3,8.3,23.6,3.8c0.9-0.5,2-0.1,2.5,0.8c0.4,0.8,0.2,1.8-0.5,2.3c-8.9,5.6-21.6,3.5-28.3-4.5&#10;&#9;&#9;c-1.9-2.5-3.6-5.2-4.9-8.1c-1.1-2.3-2.3-4.5-3.8-6.5c-3-4-8.5-6.6-12.1-4.2c-3.1,2.1-3.3,6.1-3.5,10.9c-0.1,2.4-0.3,4.7-0.8,7&#10;&#9;&#9;c-2.2,8.5-10.1,14.2-18.9,13.6c-6.8-0.6-12.1-5-17.3-9.1c-4.4-3.6-8.5-6.9-13.4-8.2c-8.9-2.2-17.8,3.2-20.1,12.1&#10;&#9;&#9;c-0.9,3.6-0.6,7.4,1,10.8c1.9,4.2,5.4,7.5,9.2,10.8c2.7-2.5,5.5-5,8.5-7.3s6.2-4.9,10.2-5.9c3.5-0.8,7.1-0.2,10.4,0.5&#10;&#9;&#9;c4,0.9,8.1,2.1,12.1,3.2c12.4,3.5,25.2,7.2,36.7,2.5c0.9-0.4,2,0.1,2.4,1c0.4,0.9-0.1,2-1,2.4c-12.6,5.1-26.1,1.3-39.1-2.4&#10;&#9;&#9;c-3.9-1.1-8-2.3-11.9-3.1c-2.9-0.6-6-1.1-8.8-0.5c-3.3,0.8-6.2,3.1-8.8,5.1c-2.8,2.2-5.5,4.5-8,6.9c4.2,3.7,8.1,7.7,9.8,13.2&#10;&#9;&#9;c2.3,8.6-1.8,17.6-9.8,21.5C205.6,260,203.7,260.4,201.7,260.5z M204.8,227c-6.1,6.4-10.4,13.3-10.1,21.2c0.1,3.6,1.5,6.4,3.6,7.7&#10;&#9;&#9;c2.1,1.3,4.8,1.1,7.6-0.1c6.3-3.1,9.6-10.3,7.8-17.1C212.3,234,208.8,230.5,204.8,227z"/>
	<path class="st2_ramen-96" d="M201.7,261.2c-1.9,0-3.9-0.5-5.6-1.5c-3.4-2-5.5-6.1-5.7-11.2c-0.4-8.1,3-15.7,10.6-23.8&#10;&#9;&#9;c-3.9-3.4-7.5-6.9-9.6-11.6c-4.7-10.5,0-22.9,10.5-27.6c4.3-1.9,9.1-2.4,13.6-1.2c5.9,1.5,10.6,5.3,15.2,9c4.8,4,9.4,7.7,14.9,8.2&#10;&#9;&#9;c6.6,0.4,12.5-3.9,14.2-10.3c0.4-2.1,0.6-4.2,0.7-6.3c0.3-5.4,0.6-10.9,5.5-14.2c5.9-4,13.8-0.5,18,5.2c1.6,2.3,3,4.7,4.2,7.1&#10;&#9;&#9;c1.2,2.6,2.7,5,4.4,7.2c5.3,6.3,15.7,8,22.7,3.6c1.2-0.7,2.7-0.4,3.5,0.8c0,0,0,0,0,0c0.7,1.2,0.4,2.7-0.8,3.5c0,0,0,0,0,0&#10;&#9;&#9;c-9.2,5.7-22.3,3.7-29.2-4.6c-2-2.5-3.6-5.3-5-8.2c-1.1-2.3-2.3-4.4-3.7-6.4c-2.8-3.7-7.9-6.2-11.2-4c-2.8,1.9-3,5.8-3.2,10.3&#10;&#9;&#9;c-0.1,2.4-0.3,4.8-0.8,7.1c-2.3,8.8-10.5,14.8-19.6,14.1c-7.1-0.6-12.4-5-17.7-9.3c-4.3-3.5-8.4-6.8-13.2-8&#10;&#9;&#9;c-8.5-2.1-17.1,3.1-19.2,11.6c-0.8,3.4-0.5,7.1,0.9,10.3c1.7,3.9,4.9,6.9,8.6,10.1c2.3-2.1,4.9-4.3,8.1-6.9c2.9-2.4,6.3-5,10.5-6&#10;&#9;&#9;c3.7-0.8,7.3-0.3,10.7,0.5c4,0.9,8.1,2.1,12.1,3.2c12.3,3.5,25.1,7.1,36.3,2.6c0.6-0.3,1.3-0.3,1.9,0c0.6,0.3,1.1,0.8,1.4,1.4&#10;&#9;&#9;c0.5,1.3-0.1,2.8-1.4,3.3c-12.8,5.2-26.4,1.4-39.5-2.4c-3.9-1.1-7.9-2.3-11.9-3.1c-2.8-0.6-5.8-1.1-8.5-0.5c-3.1,0.7-6,3-8.5,5&#10;&#9;&#9;c-3,2.4-5.3,4.4-7.4,6.3c3.8,3.4,7.7,7.4,9.4,13c2.4,8.9-1.8,18.3-10.2,22.3C205.8,260.7,203.7,261.1,201.7,261.2z M210.7,185&#10;&#9;&#9;c-10.8-0.1-19.6,8.5-19.7,19.2c0,2.8,0.6,5.7,1.7,8.3c2.1,4.7,5.8,8.2,9.8,11.6c0.1,0.1,0.2,0.3,0.2,0.5c0,0.2-0.1,0.4-0.2,0.5&#10;&#9;&#9;c-7.7,8-11.1,15.4-10.8,23.3c0.2,4.6,2,8.3,5,10.1c2.7,1.6,6.7,1.6,10.3,0c7.7-3.7,11.7-12.4,9.4-20.7c-1.6-5.5-5.8-9.5-9.6-12.9&#10;&#9;&#9;c-0.1-0.1-0.2-0.3-0.2-0.5c0-0.2,0.1-0.4,0.2-0.5c2.2-2.1,4.8-4.3,8.1-6.9c2.6-2.1,5.6-4.5,9.1-5.3c2.9-0.7,6.1-0.2,9.1,0.5&#10;&#9;&#9;c4,0.9,8,2,11.9,3.1c12.9,3.7,26.2,7.5,38.6,2.4c0.6-0.2,0.8-0.9,0.6-1.5c-0.2-0.6-0.9-0.9-1.5-0.6c0,0,0,0,0,0&#10;&#9;&#9;c-11.7,4.8-24.6,1.1-37.1-2.5c-4-1.1-8.1-2.3-12.1-3.2c-3.2-0.7-6.7-1.3-10.1-0.5c-3.9,0.9-7.1,3.5-9.9,5.7c-3.4,2.7-6.1,5-8.4,7.3&#10;&#9;&#9;c-0.3,0.2-0.7,0.2-0.9,0c-4-3.5-7.5-6.8-9.4-11c-3.9-8.7,0-18.9,8.6-22.8c3.5-1.6,7.5-1.9,11.3-1c5.1,1.3,9.3,4.7,13.7,8.3&#10;&#9;&#9;c5.1,4.1,10.3,8.4,16.9,9c8.4,0.6,16-4.9,18.1-13.1c0.5-2.3,0.7-4.6,0.8-6.9c0.3-4.9,0.5-9.1,3.9-11.4c3.9-2.6,9.9,0.1,13.1,4.4&#10;&#9;&#9;c1.5,2.1,2.8,4.3,3.9,6.6c1.3,2.8,2.9,5.5,4.8,7.9c6.5,7.8,18.8,9.7,27.4,4.4c0.3-0.2,0.4-0.4,0.5-0.7c0.1-0.3,0-0.6-0.1-0.9&#10;&#9;&#9;c-0.3-0.5-1-0.7-1.5-0.4c-7.6,4.7-18.8,2.9-24.5-3.9c-1.8-2.3-3.3-4.8-4.5-7.5c-1.2-2.4-2.5-4.8-4.1-7c-3.8-5.1-10.9-8.4-16.1-4.9&#10;&#9;&#9;c-4.3,2.9-4.6,8.1-4.8,13.1c-0.1,2.2-0.3,4.4-0.7,6.5c-1.6,6.8-8.8,12-15.7,11.3c-5.9-0.6-10.7-4.4-15.7-8.5&#10;&#9;&#9;c-4.4-3.6-9-7.4-14.6-8.7C213.7,185.2,212.2,185,210.7,185z M201.7,257.5c-1.3,0-2.5-0.3-3.7-0.9c-2.3-1.4-3.8-4.5-3.9-8.3&#10;&#9;&#9;c-0.3-7.1,3-14.3,10.2-21.7c0.3-0.3,0.7-0.3,1,0c0,0,0,0,0,0c3.8,3.3,7.6,7,9.1,12c1.9,7.2-1.5,14.7-8.2,18&#10;&#9;&#9;C204.8,257.2,203.2,257.5,201.7,257.5L201.7,257.5z M204.9,228c-6.7,7.1-9.7,13.5-9.4,20.2c0.1,3.3,1.4,6,3.3,7.1&#10;&#9;&#9;c1.8,1,4.3,1,6.9-0.2c6-3,9.1-9.8,7.4-16.3C211.7,234.5,208.3,231.1,204.9,228L204.9,228z"/>
	<path class="st1_ramen-96" d="M242.4,304.6c-0.2,0-0.5,0-0.7-0.1c-7.6-3.1-15.4-6.8-18.4-14.3c-1.4-3.5-1.6-7.3-1.6-11.1c0-0.9,0-1.9,0-2.8&#10;&#9;&#9;c0.2-5.4-0.1-10.8-0.8-16.2c-0.6,0.1-1.2,0.3-1.8,0.4c-9.6,1.8-19.5,0-28.3-1.7c-0.4-0.1-0.7-0.3-1-0.6c-2.3-2.7-3.3-6.4-2.7-9.9&#10;&#9;&#9;c0.6-4.2,3-7.9,6.5-10.1c6.1-3.7,14.6-2.8,20.8,2.2c5.2,4.2,7.9,10,9.2,15.1c6-2.3,12-6.8,13.9-13.8c2.3-8.5-2-17.3-6.2-25.8&#10;&#9;&#9;l-0.5-1.1c-4.4-8.9-9-19.6-9.4-31.1c-0.5-12.2,4.4-23.7,12.8-29.8s19-6.9,28.4-7.3c5.4-0.2,10.6-0.2,15.5,1.7s9.8,6.5,10.1,12.5&#10;&#9;&#9;c0.2,3.4-1.1,6.4-2.4,9.3c-4.2,9.2-9.3,18-15.3,26.2c-0.9,1.2-1.8,2.4-2.7,3.6c-4.3,5.7-8.8,11.6-10.7,18.4&#10;&#9;&#9;c-2.2,7.6-0.2,17.5,6.9,20.9c0.9,0.5,1.2,1.6,0.7,2.5c-0.5,0.8-1.4,1.2-2.3,0.8c-9.2-4.4-11.4-16.3-8.8-25.2&#10;&#9;&#9;c2.1-7.4,6.8-13.6,11.3-19.6c0.9-1.2,1.8-2.4,2.6-3.5c5.8-8,10.8-16.5,14.9-25.5c1.1-2.5,2.2-5.1,2.1-7.6c-0.2-4.4-4.1-7.8-7.8-9.3&#10;&#9;&#9;c-4.2-1.6-9-1.6-14-1.4c-8.9,0.3-19,1.1-26.4,6.6s-11.7,15.7-11.3,26.7c0.4,10.8,4.8,21.1,9,29.6l0.5,1.1&#10;&#9;&#9;c4.3,8.7,9.2,18.6,6.5,28.4c-2,7.3-8.3,13.4-16.6,16.5c1,5.7,1,11.6,1,17.3c0,0.9,0,1.9,0,2.8c0,3.5,0.1,6.8,1.3,9.7&#10;&#9;&#9;c2.5,6.2,9.5,9.4,16.4,12.3c0.9,0.4,1.4,1.5,1,2.4C243.8,304.1,243.2,304.6,242.4,304.6L242.4,304.6z M192.1,255.3&#10;&#9;&#9;c8.7,1.6,17.6,3.2,26.3,1.6c0.6-0.1,1.1-0.2,1.7-0.4c-1.2-4.5-3.5-9.7-8-13.3c-4.9-4-11.9-4.8-16.6-1.9c-2.6,1.7-4.3,4.5-4.8,7.6&#10;&#9;&#9;C190.3,251.1,190.8,253.4,192.1,255.3z"/>
	<path class="st2_ramen-96" d="M242.4,305.3c-0.3,0-0.7-0.1-1-0.2c-7.8-3.2-15.6-6.9-18.8-14.6c-1.5-3.6-1.6-7.5-1.6-11.4v-2.8&#10;&#9;&#9;c0.2-5.1-0.1-10.2-0.7-15.3l-1.1,0.2c-9.7,1.8-19.7,0-28.6-1.7c-0.5-0.1-1-0.4-1.4-0.8c-2.5-2.9-3.5-6.8-2.9-10.5&#10;&#9;&#9;c0.6-4.4,3.1-8.2,6.8-10.6c6.3-3.9,15.2-2.9,21.6,2.2c4.3,3.5,7.4,8.4,9.2,14.7c4.2-1.7,10.7-5.6,12.8-13.1&#10;&#9;&#9;c2.3-8.2-2-16.9-6.2-25.3L230,215c-4.4-9-9-19.7-9.5-31.4c-0.5-12.5,4.5-24.1,13.1-30.4s19.2-7.1,28.8-7.4&#10;&#9;&#9;c5.5-0.2,10.7-0.2,15.8,1.7s10.2,6.8,10.6,13.1c0.2,3.5-1.1,6.7-2.5,9.6c-4.2,9.3-9.3,18.1-15.3,26.3c-0.9,1.2-1.7,2.3-2.6,3.5&#10;&#9;&#9;c-4.3,5.8-8.8,11.6-10.7,18.3c-2.1,7.3-0.3,16.8,6.5,20.1c1.2,0.7,1.7,2.2,1.1,3.4c-0.6,1.2-2.1,1.7-3.3,1.1&#10;&#9;&#9;c-9.5-4.6-11.9-16.9-9.2-26.1c2.2-7.5,6.9-13.8,11.4-19.8c0.9-1.2,1.8-2.4,2.6-3.5c5.8-7.9,10.8-16.5,14.9-25.4&#10;&#9;&#9;c1.1-2.4,2.1-4.9,2-7.3c-0.2-4.1-3.9-7.3-7.4-8.7c-4.1-1.6-8.8-1.6-13.7-1.4c-8.8,0.3-18.7,1.1-26,6.4s-11.4,15.3-11,26.1&#10;&#9;&#9;s4.7,20.8,8.9,29.3l0.5,1.1c4.4,8.8,9.3,18.8,6.5,28.9c-2,7.3-8.2,13.5-16.5,16.8c0.8,5.6,1.1,11.2,0.9,16.8c0,0.9,0,1.9,0,2.8&#10;&#9;&#9;c0,3.4,0.1,6.7,1.2,9.5c2.4,5.9,9.2,9.1,16,11.9c1.3,0.5,1.9,2,1.4,3.3c-0.4,1-1.3,1.6-2.4,1.6L242.4,305.3z M220.9,259.4&#10;&#9;&#9;c0.1,0,0.3,0,0.4,0.1c0.2,0.1,0.3,0.3,0.3,0.5c0.7,5.4,1,10.8,0.8,16.3v2.8c0,3.8,0.1,7.5,1.5,10.9c3,7.2,10.5,10.8,18,13.9&#10;&#9;&#9;c0.6,0.2,1.2,0,1.5-0.6c0.2-0.6,0-1.2-0.6-1.5c-7.1-2.9-14.2-6.2-16.8-12.6c-1.2-3-1.3-6.5-1.3-10c0-0.9,0-1.9,0-2.8&#10;&#9;&#9;c0-5.6,0.1-11.5-0.9-17.1c-0.1-0.3,0.1-0.7,0.4-0.8c8.2-3,14.2-9,16.2-16c2.6-9.6-2.2-19.3-6.4-27.9l-0.5-1.1&#10;&#9;&#9;c-4.3-8.6-8.7-18.9-9.1-29.9c-0.4-11.3,4-21.7,11.6-27.3s17.8-6.4,26.7-6.7c5-0.2,9.9-0.2,14.3,1.5c3.9,1.5,8,5.2,8.2,9.9&#10;&#9;&#9;c0.1,2.7-1,5.4-2.1,8c-4.1,9-9.1,17.6-15,25.6c-0.8,1.2-1.7,2.3-2.6,3.5c-4.5,6-9.1,12.2-11.3,19.4c-2.5,8.6-0.4,20.1,8.4,24.4&#10;&#9;&#9;c0.5,0.4,1.2,0.2,1.6-0.3c0.4-0.5,0.2-1.2-0.3-1.6c-0.1-0.1-0.2-0.1-0.3-0.1c-7.5-3.6-9.5-13.9-7.2-21.8c2-6.9,6.5-12.9,10.8-18.6&#10;&#9;&#9;c1-1.2,1.8-2.4,2.7-3.6c5.9-8.1,11-16.9,15.2-26.1c1.3-2.8,2.5-5.8,2.3-9c-0.3-5.7-5.1-10.1-9.7-11.9s-9.9-1.8-15.2-1.6&#10;&#9;&#9;c-9.3,0.3-19.9,1.2-28,7.1s-12.9,17.2-12.5,29.2c0.4,11.4,4.9,22,9.3,30.8l0.5,1.1c4.3,8.6,8.7,17.6,6.3,26.3&#10;&#9;&#9;c-2.4,8.5-10,12.6-14.3,14.3c-0.2,0.1-0.4,0.1-0.6,0c-0.2-0.1-0.3-0.3-0.4-0.4c-1.7-6.4-4.8-11.3-9-14.7c-6-4.8-14.2-5.7-20-2.1&#10;&#9;&#9;c-3.4,2.2-5.6,5.7-6.2,9.6c-0.6,3.3,0.3,6.8,2.5,9.4c0.2,0.2,0.4,0.3,0.6,0.4c8.7,1.6,18.6,3.5,28.1,1.7c0.6-0.1,1.2-0.2,1.8-0.4&#10;&#9;&#9;C220.7,259.5,220.8,259.4,220.9,259.4L220.9,259.4z M210.6,258.3c-6.4,0-12.8-1.2-18.6-2.3c-0.2,0-0.3-0.1-0.4-0.3&#10;&#9;&#9;c-1.4-2-2-4.6-1.6-7c0.5-3.3,2.3-6.2,5.1-8c4.9-3,12.3-2.2,17.4,2c3.9,3.1,6.7,7.7,8.3,13.7c0,0.2,0,0.4-0.1,0.5&#10;&#9;&#9;c-0.1,0.2-0.3,0.3-0.4,0.3c-0.6,0.1-1.2,0.3-1.8,0.4C215.9,258.1,213.2,258.3,210.6,258.3L210.6,258.3z M192.5,254.7&#10;&#9;&#9;c8,1.5,17.1,3.2,25.8,1.5l1-0.2c-1.6-5.3-4.1-9.5-7.6-12.3c-4.7-3.8-11.4-4.6-15.8-1.9c-2.4,1.6-4.1,4.2-4.5,7.1&#10;&#9;&#9;C191,250.9,191.4,253,192.5,254.7L192.5,254.7z"/>
	<path class="st1_ramen-96" d="M261.8,321.4c-5.5,1.9-11.2,2.7-17,2.5c-9.9-0.6-21.6-7.1-23.6-17.9c-0.7-3.8-0.3-8,0.1-12.1&#10;&#9;&#9;c0.7-7.2,1.4-14.7-3.8-20.2c-2.5-2.6-5.9-4.1-8.8-5.3c-6.3-2.7-13.5-5.7-20.9-6.1c-8.5-0.5-16.4,2.7-20.5,8.5&#10;&#9;&#9;c-0.6,0.8-0.4,2,0.4,2.6s2,0.4,2.6-0.4c4-5.7,11.6-7.3,17.3-7c6.9,0.4,13.4,3.2,19.7,5.9c2.8,1.2,5.6,2.4,7.6,4.5&#10;&#9;&#9;c4.1,4.3,3.4,10.6,2.8,17.3c-0.4,4.4-0.9,8.9-0.1,13.1c1.8,9.6,11.7,19.9,27,20.8c6.3,0.3,12.7-0.7,18.6-2.8&#10;&#9;&#9;C262.6,323.8,262.1,322.6,261.8,321.4z"/>
	<path class="st2_ramen-96" d="M247.1,328.3c-0.9,0-1.7,0-2.5-0.1c-15.6-1-25.7-11.5-27.6-21.4c-0.8-4.4-0.4-8.9,0-13.3&#10;&#9;&#9;c0.6-6.5,1.2-12.7-2.6-16.8c-1.9-2-4.7-3.1-7.4-4.3c-6.3-2.7-12.8-5.4-19.5-5.8c-5.5-0.3-12.8,1.2-16.7,6.7&#10;&#9;&#9;c-0.9,1.1-2.4,1.3-3.5,0.4c-1-0.8-1.3-2.3-0.6-3.4c4.2-6,12.3-9.3,21.1-8.8c7.6,0.5,14.8,3.5,21.2,6.2c3,1.3,6.4,2.7,9.1,5.5&#10;&#9;&#9;c5.4,5.7,4.7,13.4,4,20.7c-0.4,4.1-0.8,8.3-0.1,11.9c2,10.5,13.3,16.7,22.9,17.3c5.7,0.2,11.4-0.6,16.7-2.5c0.2-0.1,0.4,0,0.6,0.1&#10;&#9;&#9;c0.2,0.1,0.3,0.3,0.3,0.5c0.3,1.1,0.7,2.2,1.3,3.2c0.1,0.2,0.1,0.4,0.1,0.6c-0.1,0.2-0.2,0.4-0.4,0.4&#10;&#9;&#9;C258.2,327.3,252.6,328.3,247.1,328.3z M186.1,265.2c0.5,0,1,0,1.5,0c7,0.4,13.6,3.2,19.9,5.9c2.9,1.2,5.8,2.4,7.9,4.6&#10;&#9;&#9;c4.3,4.5,3.6,11,3,17.9c-0.4,4.3-0.8,8.8-0.1,12.9c1.8,9.4,11.4,19.4,26.3,20.3c6,0.3,11.9-0.6,17.6-2.5c-0.3-0.7-0.6-1.4-0.9-2.1&#10;&#9;&#9;c-5.3,1.8-10.9,2.5-16.6,2.3c-10.2-0.6-22.1-7.3-24.2-18.4c-0.7-3.9-0.3-8.1,0.1-12.3c0.7-7.1,1.4-14.4-3.6-19.6&#10;&#9;&#9;c-2.4-2.5-5.7-3.9-8.6-5.1c-6.3-2.6-13.4-5.6-20.7-6.1c-8.3-0.5-15.9,2.6-19.9,8.2c-0.3,0.5-0.2,1.2,0.3,1.6&#10;&#9;&#9;c0.5,0.3,1.2,0.2,1.5-0.3C173.5,267.1,180.4,265.2,186.1,265.2L186.1,265.2z"/>
	<path class="st1_ramen-96" d="M157,322.1c-8.2,0-16-1.3-21.6-6.8c-6.3-6.5-7.3-16.5-2.5-24.1c3.6-5.4,10.1-9.1,19.1-10.9&#10;&#9;&#9;c2.6-0.5,5.4-0.9,8-1.2c4.3-0.4,8.5-1.3,12.6-2.4c6.2-2,11.8-5.6,16.1-10.5c2.5-2.9,3.6-5.5,3.2-8.2c-0.5-3.5-3.5-7.1-9.1-10.7&#10;&#9;&#9;c-2.2-1.4-4.5-3.1-6.7-4.6c-8.7-6.2-17.7-12.6-28.2-11.6c-3.9,0.4-7.8,1.4-11.5,2.9c8.4,5.4,15,14.3,15,25.3&#10;&#9;&#9;c0,7.1-4.7,12.9-8.9,17.3c-4.8,5.1-12.4,12-21.9,13.4c-7.9,1.2-14.3-1.4-18.2-7.3c-5.1-8-4.6-21.1,1.2-30&#10;&#9;&#9;c6.2-9.4,16.3-15.2,24.1-18.9c-1.3-0.5-2.6-0.9-4-1.1c-1.2-0.3-2.5-0.5-3.9-0.7c-5.3-0.9-10.7-1.8-14.2-6.1&#10;&#9;&#9;c-2.5-3.2-3.4-7.7-2.6-13.2c1.9-12.1,10.3-23.4,23.2-31.1c11.3-6.8,24.2-9.9,36.6-13c7.9-2,11.2,0.5,12.5,2.8&#10;&#9;&#9;c0.5,0.9,0.2,2-0.7,2.5c-0.9,0.5-2,0.2-2.5-0.7c-1.4-2.4-5.9-1.7-8.4-1.1c-12.2,3-24.8,6.1-35.6,12.6&#10;&#9;&#9;c-11.9,7.1-19.8,17.5-21.5,28.5c-0.5,3.1-0.5,7.4,1.8,10.3c2.6,3.2,7.1,4,11.9,4.8c1.3,0.2,2.7,0.4,4.1,0.7&#10;&#9;&#9;c2.7,0.6,5.3,1.5,7.7,2.7c4.8-2.2,10-3.6,15.3-4.2c11.9-1.1,21.4,5.7,30.7,12.3c2.3,1.6,4.4,3.1,6.6,4.6&#10;&#9;&#9;c6.6,4.3,10.1,8.6,10.7,13.3c0.5,3.7-0.9,7.4-4.1,11.1c-4.7,5.4-10.9,9.4-17.7,11.5c-4.3,1.2-8.8,2.1-13.2,2.6&#10;&#9;&#9;c-2.6,0.4-5.2,0.7-7.8,1.2c-8.1,1.6-13.7,4.7-16.8,9.3c-3.8,6.2-3,14.2,2,19.5c5.9,5.8,15.3,6.1,24.6,5.6c17.2-1,28.2-3.9,37.1-17&#10;&#9;&#9;c0.9-1.2,1.7-2.6,2.5-3.9c2.3-3.7,4.7-7.5,8.1-10.4c3.1-2.7,7-4.6,12.3-6.3c14.4-4.3,29.8-3.5,43.7,2.4c2.7,1.2,5.7,3.9,6.2,6.8&#10;&#9;&#9;c0.3,1.5-0.3,3.1-1.4,4.1c-0.8,0.6-1.9,0.5-2.6-0.3c-0.6-0.7-0.5-1.7,0.1-2.4c0.3-0.2,0.4-0.5,0.3-0.9c-0.2-1.3-2.1-3.2-4.1-4&#10;&#9;&#9;c-13.1-5.5-27.6-6.3-41.2-2.2c-4.8,1.5-8.3,3.2-10.9,5.5c-3,2.6-5.1,6-7.4,9.6c-0.8,1.3-1.7,2.7-2.6,4c-9.7,14.2-22,17.6-39.9,18.6&#10;&#9;&#9;C160.8,322,158.9,322.1,157,322.1z M132.2,235.6l-0.8,0.4c-7.6,3.4-18.4,9-24.6,18.5c-5.1,7.8-5.6,19.2-1.2,26&#10;&#9;&#9;c3,4.7,8.1,6.7,14.5,5.7c8.4-1.3,15.4-7.7,19.8-12.4c3.7-3.8,7.9-9,7.8-14.7C147.7,248.6,140.6,240.2,132.2,235.6L132.2,235.6z"/>
	<path class="st2_ramen-96" d="M157,322.8c-10.4,0-17.2-2.2-22.1-7c-6.6-6.7-7.6-17.1-2.6-25c3.7-5.6,10.3-9.3,19.6-11.2&#10;&#9;&#9;c2.7-0.5,5.4-0.9,8-1.2c4.2-0.4,8.4-1.2,12.5-2.4c6.1-1.9,11.5-5.5,15.8-10.3c2.4-2.7,3.4-5.2,3-7.6c-0.4-3.3-3.4-6.7-8.8-10.2&#10;&#9;&#9;c-2.2-1.4-4.5-3.1-6.7-4.6c-8.6-6.1-17.5-12.5-27.8-11.5c-3.4,0.4-6.8,1.2-10,2.4c9,6.2,14.2,15.3,14.2,25.1&#10;&#9;&#9;c0,7.3-4.8,13.3-9.1,17.8c-4.9,5.1-12.6,12.1-22.3,13.6c-8.2,1.3-14.9-1.4-18.9-7.6c-5.3-8.2-4.8-21.7,1.2-30.8&#10;&#9;&#9;c4.7-7.1,12.1-13.2,22.8-18.4c-0.8-0.2-1.5-0.4-2.2-0.6c-1.2-0.3-2.5-0.5-3.8-0.7c-5.5-0.9-11-1.8-14.7-6.4&#10;&#9;&#9;c-2.7-3.3-3.6-8.1-2.7-13.7c1.9-12.3,10.5-23.8,23.5-31.6c11.4-6.8,24.4-10,36.8-13.1c8.3-2.1,11.8,0.6,13.3,3.2&#10;&#9;&#9;c0.7,1.2,0.3,2.8-0.9,3.5c-1.2,0.7-2.8,0.3-3.5-0.9c0,0,0,0,0-0.1c-1.2-2.1-5.8-1.2-7.7-0.7c-12.1,3-24.6,6.1-35.4,12.6&#10;&#9;&#9;c-11.8,7-19.5,17.2-21.1,28c-0.5,2.9-0.5,7,1.7,9.8c2.4,3,6.8,3.8,11.5,4.5c1.4,0.2,2.8,0.4,4.1,0.7c2.6,0.6,5.2,1.5,7.6,2.6&#10;&#9;&#9;c4.8-2.1,9.9-3.5,15.2-4.2c12.1-1.1,21.8,5.8,31.1,12.4c2.3,1.6,4.4,3.1,6.6,4.5c6.8,4.4,10.4,8.9,11,13.8&#10;&#9;&#9;c0.5,3.9-0.9,7.8-4.3,11.6c-4.8,5.5-11,9.5-18,11.7c-4.4,1.3-8.8,2.1-13.4,2.6c-2.6,0.3-5.2,0.7-7.7,1.2c-7.9,1.6-13.4,4.6-16.3,9&#10;&#9;&#9;c-3.7,5.9-2.9,13.5,1.9,18.6c5.7,5.6,14.9,5.9,24.1,5.4c17-1,27.8-3.9,36.6-16.7c0.9-1.2,1.7-2.6,2.5-3.9c2.3-3.7,4.7-7.6,8.2-10.6&#10;&#9;&#9;c3.2-2.7,7.1-4.8,12.5-6.4c14.6-4.4,30.2-3.5,44.2,2.4c2.9,1.2,6.1,4.1,6.6,7.3c0.3,1.8-0.3,3.6-1.6,4.8c-1,1-2.6,0.9-3.6-0.1&#10;&#9;&#9;c-0.5-0.5-0.7-1.1-0.7-1.8c0-0.7,0.3-1.3,0.8-1.8c0,0,0.1-0.1,0.1-0.1c-0.2-1.1-1.8-2.8-3.7-3.6c-12.9-5.4-27.3-6.2-40.7-2.2&#10;&#9;&#9;c-4.7,1.4-8.1,3.1-10.7,5.4c-2.9,2.5-5,5.9-7.2,9.4c-0.8,1.4-1.7,2.7-2.6,4c-9.9,14.5-22.3,17.9-40.5,18.9&#10;&#9;&#9;C160.6,322.7,158.7,322.8,157,322.8z M150,230.2c9.8,0,18.3,6,26.5,11.9c2.2,1.6,4.5,3.2,6.7,4.6c5.7,3.7,8.9,7.5,9.4,11.2&#10;&#9;&#9;c0.4,2.9-0.7,5.7-3.4,8.7c-4.4,5-10.1,8.7-16.4,10.7c-4.2,1.2-8.4,2-12.7,2.5c-2.7,0.4-5.3,0.7-8,1.2c-8.9,1.8-15.1,5.3-18.7,10.6&#10;&#9;&#9;c-4.7,7.4-3.7,17,2.4,23.2c4.6,4.6,11.1,6.6,21.1,6.6c1.7,0,3.6,0,5.7-0.2c17.7-1,29.8-4.3,39.4-18.3c0.9-1.3,1.7-2.7,2.6-4&#10;&#9;&#9;c2.3-3.7,4.4-7.1,7.5-9.8c3.3-2.7,7.1-4.6,11.2-5.7c13.8-4.1,28.5-3.3,41.7,2.3c1.9,0.8,4.2,2.9,4.5,4.6c0.1,0.6-0.1,1.1-0.5,1.5&#10;&#9;&#9;c-0.2,0.2-0.4,0.5-0.4,0.8c0,0.3,0.1,0.6,0.3,0.8c0.4,0.5,1.1,0.5,1.6,0.1c1-0.9,1.4-2.2,1.2-3.5c-0.5-2.6-3.3-5.2-5.8-6.2&#10;&#9;&#9;c-13.7-5.8-29-6.6-43.2-2.3c-5.2,1.6-9,3.5-12,6.1c-3.3,2.9-5.7,6.6-8,10.2c-0.8,1.3-1.6,2.6-2.5,3.9c-9,13.3-20.2,16.3-37.6,17.3&#10;&#9;&#9;c-9.4,0.5-19,0.2-25.1-5.8c-5.3-5.5-6.1-13.9-2.1-20.4c3.2-4.8,9-8,17.2-9.6c2.6-0.5,5.2-0.9,7.8-1.2c4.4-0.5,8.8-1.3,13.1-2.5&#10;&#9;&#9;c6.7-2.1,12.7-6.1,17.4-11.3c3.1-3.5,4.4-7,3.9-10.5c-0.6-4.5-4-8.6-10.4-12.8c-2.2-1.4-4.3-2.9-6.6-4.6&#10;&#9;&#9;c-9.2-6.5-18.6-13.3-30.2-12.2c-5.2,0.6-10.2,2-15,4.2c-0.2,0.1-0.4,0.1-0.6,0c-2.4-1.2-5-2.1-7.6-2.6c-1.3-0.3-2.7-0.5-4-0.7&#10;&#9;&#9;c-4.9-0.8-9.6-1.6-12.3-5c-2.5-3.2-2.4-7.6-2-10.9c1.7-11.2,9.7-21.8,21.8-29c11-6.5,23.6-9.7,35.8-12.7c3.4-0.8,7.7-1.3,9.2,1.4&#10;&#9;&#9;c0.3,0.6,1,0.8,1.6,0.4c0.6-0.3,0.8-1,0.4-1.6c-1.7-3.1-5.8-4-11.7-2.5c-12.4,2.9-25.2,6.1-36.5,12.8c-12.7,7.6-21,18.7-22.9,30.6&#10;&#9;&#9;c-0.8,5.3,0,9.6,2.4,12.6c3.3,4.1,8.6,5,13.7,5.9c1.4,0.2,2.7,0.4,3.9,0.7c1.4,0.3,2.7,0.7,4,1.2c0.3,0.1,0.5,0.3,0.5,0.6&#10;&#9;&#9;c0,0.3-0.1,0.5-0.4,0.7c-11.3,5.3-19,11.4-23.8,18.6c-5.7,8.7-6.2,21.5-1.2,29.2c3.7,5.7,9.9,8.2,17.5,7&#10;&#9;&#9;c9.3-1.5,16.8-8.2,21.5-13.2c4.1-4.2,8.7-10,8.7-16.8c0-9.7-5.4-18.7-14.7-24.7c-0.2-0.1-0.3-0.4-0.3-0.7c0-0.3,0.2-0.5,0.4-0.6&#10;&#9;&#9;c3.7-1.5,7.7-2.5,11.7-2.9C148.6,230.2,149.3,230.2,150,230.2z M116.9,287.2c-4.8,0.2-9.3-2.2-11.9-6.2c-4.6-7.1-4-18.8,1.2-26.8&#10;&#9;&#9;c6.3-9.7,17.2-15.4,24.9-18.8l0.9-0.4c0.2-0.1,0.4-0.1,0.6,0c9.9,5.4,15.9,14.4,15.9,24.2c0,6-4.3,11.3-8,15.2&#10;&#9;&#9;c-4.5,4.8-11.6,11.2-20.2,12.6C119.1,287.2,118,287.2,116.9,287.2L116.9,287.2z M132.1,236.4l-0.5,0.2c-7.5,3.4-18.2,8.9-24.3,18.3&#10;&#9;&#9;c-4.9,7.5-5.4,18.6-1.2,25.3c2.9,4.5,7.7,6.3,13.8,5.4c8.2-1.3,15-7.5,19.4-12.1c3.6-3.7,7.7-8.7,7.6-14.2&#10;&#9;&#9;C147,250,141.4,241.5,132.1,236.4L132.1,236.4z"/>
	<path class="st1_ramen-96" d="M290.6,333c-2.1-0.3-4.1-0.3-6.2,0c-1.6,0.8-3.4,1-5.1,0.8h-0.2c-2.9,0.7-6,1.1-9,1&#10;&#9;&#9;c-5.8-0.4-10.7-3.8-13.9-6.6l-1-0.9c-0.7-0.6-1.4-1.3-2.2-1.9c0.5-1.2,0.9-2.3,1.2-3.5c1-3.1,1.7-6.4,0.4-9.5&#10;&#9;&#9;c-1.2-2.7-3.7-4.3-5.4-5.2c-5.1-2.8-10.9-4.2-16.7-3.9c-1,0-1.8,0.9-1.7,1.9c0,0,0,0,0,0c0.1,1,0.9,1.8,1.9,1.7&#10;&#9;&#9;c5.2-0.2,10.3,1,14.8,3.5c2.1,1.1,3.3,2.3,3.9,3.5c0.9,1.9,0.3,4.5-0.5,6.9c-0.3,0.9-0.6,1.7-0.9,2.6c-4-1.8-9.2-1.3-14.5,1.5&#10;&#9;&#9;c-0.9,0.4-1.7,1-2.3,1.8c-1,1.8-0.8,4,0.6,5.6c1.6,2.1,4.1,3.2,6.7,3.2c2.5,0,5-0.7,7-2.2c1.6-1.2,3-2.8,4-4.6&#10;&#9;&#9;c0.4,0.4,0.9,0.8,1.4,1.2l1,0.9c5.1,4.5,10.7,7.1,16,7.5c0.5,0,1,0,1.5,0c2.8-0.1,5.7-0.4,8.5-1.1c3.6-0.7,6.9-1.3,10.2-0.8&#10;&#9;&#9;c1,0.1,1.9-0.6,2-1.6c0.1-0.9-0.5-1.8-1.4-2L290.6,333z M245.3,330.5c-1.4,1-3,1.5-4.7,1.5c-1.5,0-2.9-0.6-3.9-1.8&#10;&#9;&#9;c-0.4-0.6-0.6-1.2-0.4-1.4c0.3-0.3,0.6-0.5,0.9-0.6c2.4-1.3,5-2,7.7-2.1c1.2,0,2.5,0.2,3.6,0.7&#10;&#9;&#9;C247.7,328.2,246.6,329.5,245.3,330.5L245.3,330.5z"/>
	<path class="st2_ramen-96" d="M271.4,339.2c-0.5,0-1,0-1.5,0c-5.5-0.4-11.2-3-16.4-7.7l-1-0.9l-0.7-0.7c-1,1.6-2.2,2.9-3.7,4.1&#10;&#9;&#9;c-2.2,1.6-4.8,2.4-7.5,2.4c-2.8,0-5.5-1.3-7.2-3.5c-1.5-1.8-1.8-4.4-0.6-6.4c0.6-0.9,1.5-1.6,2.5-2.1c5.2-2.7,10.3-3.3,14.4-1.8&#10;&#9;&#9;c0.2-0.6,0.4-1.3,0.7-1.9c0.7-2.3,1.3-4.6,0.5-6.4c-0.5-1.1-1.6-2.1-3.6-3.2c-4.4-2.4-9.4-3.6-14.4-3.4c-1.4,0-2.5-1.1-2.5-2.5&#10;&#9;&#9;c0-1.3,1-2.4,2.3-2.5c6-0.3,11.9,1.1,17.1,4c1.9,1,4.5,2.7,5.7,5.6c1.5,3.3,0.7,6.8-0.3,10c-0.4,1.2-0.7,2.1-1.1,3&#10;&#9;&#9;c0.6,0.5,1.2,1,1.8,1.6l1,0.9c3.1,2.7,7.9,6,13.4,6.4c2.9,0.1,5.9-0.3,8.8-0.9l0.3,0.6l-0.1-0.7c0.1,0,0.2,0,0.3,0&#10;&#9;&#9;c1.6,0.2,3.3-0.1,4.8-0.8c0.1,0,0.1-0.1,0.2-0.1c2.1-0.3,4.3-0.3,6.4,0l0,0c1.4,0.2,2.3,1.5,2.1,2.9s-1.5,2.3-2.9,2.1&#10;&#9;&#9;c-3.2-0.5-6.5,0.1-10,0.8C277.1,338.8,274.2,339.1,271.4,339.2z M251.5,328.2c0.2,0,0.3,0.1,0.4,0.2c0.5,0.4,0.9,0.8,1.4,1.2l1,0.9&#10;&#9;&#9;c5,4.4,10.4,7,15.6,7.3c3.3,0.1,6.5-0.2,9.7-1c3.6-0.7,7-1.4,10.5-0.8c0.3,0.1,0.6,0,0.8-0.2c0.3-0.2,0.4-0.4,0.5-0.7&#10;&#9;&#9;c0.1-0.6-0.3-1.2-0.9-1.3c0,0,0,0,0,0c-2-0.3-3.9-0.3-5.9-0.1c-1.7,0.8-3.5,1.1-5.3,0.9h-0.1c-3,0.7-6.1,1.1-9.1,1&#10;&#9;&#9;c-6-0.4-11-3.9-14.3-6.8l-1-0.9c-0.7-0.6-1.4-1.3-2.1-1.9c-0.2-0.2-0.3-0.5-0.2-0.8c0.4-1,0.8-2.1,1.2-3.4c1-3,1.7-6.1,0.4-9&#10;&#9;&#9;c-1.1-2.5-3.5-4-5.1-4.9c-5-2.8-10.7-4.1-16.4-3.8c-0.3,0-0.6,0.1-0.8,0.4c-0.2,0.2-0.3,0.5-0.3,0.8c0,0.6,0.6,1.1,1.2,1.1&#10;&#9;&#9;c0,0,0,0,0,0c5.3-0.2,10.5,1,15.2,3.5c2.2,1.2,3.5,2.5,4.2,3.9c1,2.2,0.4,4.8-0.5,7.4c-0.3,0.9-0.6,1.8-0.9,2.7&#10;&#9;&#9;c-0.1,0.2-0.2,0.3-0.4,0.4c-0.2,0.1-0.4,0.1-0.6,0c-3.8-1.7-8.8-1.2-13.9,1.5c-0.8,0.3-1.5,0.9-2,1.6c-0.9,1.6-0.6,3.5,0.5,4.8&#10;&#9;&#9;c1.5,1.9,3.8,3,6.1,2.9c2.4,0,4.7-0.7,6.6-2.1c1.5-1.2,2.8-2.7,3.8-4.4c0.1-0.2,0.3-0.3,0.5-0.3L251.5,328.2z M240.8,332.7h-0.2&#10;&#9;&#9;c-1.7,0-3.3-0.7-4.4-2c-0.6-0.6-0.7-1.5-0.4-2.2c0.3-0.4,0.7-0.6,1.1-0.8c2.5-1.3,5.2-2.1,8-2.2c1.3,0,2.6,0.2,3.9,0.8&#10;&#9;&#9;c0.2,0.1,0.3,0.2,0.4,0.4c0.1,0.2,0,0.4-0.1,0.6c-0.8,1.5-2,2.8-3.3,3.9l0,0C244.3,332.2,242.5,332.7,240.8,332.7z M237,329.2&#10;&#9;&#9;c0.1,0.2,0.2,0.5,0.3,0.6c0.8,1,2,1.5,3.3,1.5c1.5,0,3.1-0.5,4.3-1.4c1-0.8,1.8-1.7,2.5-2.8c-0.8-0.2-1.7-0.4-2.6-0.4&#10;&#9;&#9;c-2.6,0.1-5.1,0.8-7.4,2C237.2,329,237.1,329.1,237,329.2z M245.4,330.5L245.4,330.5z"/>
	<path class="st1_ramen-96" d="M160.1,337.3c-1.2,0-2.1-0.9-2.1-2.1s0.9-2.1,2.1-2.1l0,0c9.2-0.3,18.2-2,26.8-5.1c6.9-2.4,15.4-7,17.1-14.8&#10;&#9;&#9;c0.3-1.2,0.3-2.5,0.1-3.7c-1.1-5-7.4-7.4-13-9.5l-1-0.4c-4.1-1.5-9.6-5-11.7-9.9c-1-2.3-1.1-5-0.1-7.3c1.2-2.8,3.6-4.6,5.7-6.1&#10;&#9;&#9;c0.6-0.5,1.3-0.9,1.9-1.4c2-1.6,3.4-4.2,2.4-5.8c-0.6-0.7-1.4-1.3-2.2-1.6c-2.9-1.1-6-1.9-9.1-2.3c-2.3-0.4-4.5-0.8-6.8-1.4&#10;&#9;&#9;c-5.6-1.6-12.2-6-12.5-13c-0.3-6.5,5.1-12.1,14.7-15.4l0.7-0.2c5.8-2,12.3-4.3,14.2-9.4c0.4-1.1,0.6-2.2,0.8-3.4&#10;&#9;&#9;c0.1-0.9,0.3-1.9,0.6-2.8c2.6-10,13.4-15,21.2-18.6s15.9-7.8,23.6-12.1c3.4-2,6.7-4,8.6-6.9c1.3-2.2,2.2-4.6,2.7-7.1&#10;&#9;&#9;c0.2-0.9,0.5-1.7,0.7-2.6c1.5-5.1,3.8-8.4,7.1-10c2.5-1.2,5.5-1.2,8,0c2,0.9,3.4,2.7,3.8,4.9c0.2,1.1-0.6,2.2-1.7,2.4&#10;&#9;&#9;c-1.1,0.2-2.2-0.6-2.4-1.7c-0.2-0.8-0.7-1.5-1.5-1.8c-1.3-0.6-2.9-0.6-4.2,0c-2.2,1.1-3.8,3.6-5,7.5c-0.2,0.8-0.5,1.6-0.7,2.4&#10;&#9;&#9;c-0.6,2.9-1.7,5.8-3.2,8.4c-2.4,3.7-6.1,6-10,8.2c-7.8,4.4-15.8,8.6-23.9,12.3c-9.2,4.2-17,8.4-18.9,15.9c-0.2,0.8-0.3,1.6-0.5,2.4&#10;&#9;&#9;c-0.2,1.4-0.5,2.8-1,4.1c-2.6,7-10.4,9.8-16.8,12l-0.7,0.2c-2.9,1-12.1,4.8-11.9,11.3c0.2,4.4,4.9,7.8,9.5,9.1&#10;&#9;&#9;c2.1,0.6,4.2,1,6.3,1.3c3.5,0.5,6.8,1.3,10.1,2.6c1.6,0.6,3.1,1.7,4.1,3.2c2.4,3.9,0,8.6-3.3,11.3c-0.7,0.5-1.4,1.1-2.1,1.6&#10;&#9;&#9;c-1.9,1.4-3.6,2.6-4.4,4.4c-0.6,1.3-0.5,2.7,0.1,4c1.4,3.4,5.7,6.2,9.3,7.6l1,0.4c6.3,2.4,14.1,5.3,15.6,12.6&#10;&#9;&#9;c0.4,1.8,0.3,3.7-0.1,5.5c-1.7,7.7-8.6,13.8-19.9,17.8C179.1,335.2,169.6,337,160.1,337.3L160.1,337.3z"/>
	<path class="st2_ramen-96" d="M160.1,338c-1.5,0-2.8-1.2-2.8-2.8s1.2-2.8,2.8-2.8c9.1-0.3,18.1-2,26.6-5c6.7-2.4,15-6.8,16.7-14.3&#10;&#9;&#9;c0.3-1.1,0.3-2.3,0.1-3.4c-1-4.7-7.1-7-12.5-9l-1-0.4c-4.2-1.6-9.9-5.2-12.1-10.2c-1.1-2.5-1.1-5.4-0.1-7.9c1.3-3,3.8-4.8,6-6.4&#10;&#9;&#9;c0.7-0.5,1.3-1,1.9-1.4c1.9-1.6,3-3.8,2.3-4.9c-0.5-0.6-1.2-1-1.9-1.3c-2.9-1.1-5.9-1.9-8.9-2.3c-2.3-0.4-4.6-0.8-6.9-1.5&#10;&#9;&#9;c-5.8-1.7-12.7-6.3-13-13.6c-0.3-6.8,5.2-12.7,15.1-16.1l0.7-0.2c5.6-2,12-4.2,13.8-9c0.3-1.1,0.6-2.1,0.7-3.2&#10;&#9;&#9;c0.1-0.9,0.3-1.9,0.6-2.9c2.7-10.4,13.6-15.4,21.6-19.1s15.9-7.8,23.5-12.1c3.3-1.9,6.5-3.9,8.3-6.6c1.2-2.2,2.1-4.5,2.6-6.9&#10;&#9;&#9;c0.2-0.9,0.5-1.7,0.7-2.6c1.6-5.3,4-8.7,7.4-10.5c2.7-1.3,5.9-1.3,8.7,0c2.2,1,3.7,3,4.1,5.4c0.1,0.7-0.1,1.5-0.5,2.1&#10;&#9;&#9;c-0.4,0.6-1.1,1-1.8,1.1c-1.5,0.3-3-0.8-3.2-2.3c-0.1-0.6-0.6-1.1-1.1-1.3c-1.1-0.5-2.4-0.5-3.6,0c-2,1-3.5,3.4-4.6,7.1&#10;&#9;&#9;c-0.2,0.8-0.5,1.6-0.7,2.4c-0.6,3-1.8,5.9-3.3,8.6c-2.5,3.8-6.3,6.2-10.2,8.5c-7.8,4.4-15.8,8.6-23.9,12.3&#10;&#9;&#9;c-9,4.2-16.7,8.2-18.5,15.4c-0.2,0.8-0.3,1.6-0.5,2.4c-0.2,1.4-0.5,2.9-1,4.2c-2.7,7.4-10.7,10.1-17.2,12.4l-0.7,0.2&#10;&#9;&#9;c-2.7,1-11.6,4.6-11.4,10.6c0.2,4.1,4.6,7.2,9,8.5c2.1,0.6,4.1,1,6.2,1.3c3.5,0.4,6.9,1.3,10.2,2.6c1.8,0.7,3.3,1.9,4.4,3.4&#10;&#9;&#9;c2.7,4.2,0.1,9.3-3.5,12.2c-0.7,0.5-1.4,1.1-2.1,1.6c-1.8,1.3-3.5,2.5-4.1,4.1c-0.5,1.1-0.5,2.4,0.1,3.5c1.4,3.2,5.4,5.9,8.9,7.2&#10;&#9;&#9;l1,0.4c6.4,2.4,14.5,5.4,16.1,13.1c0.4,1.9,0.3,3.9-0.1,5.8c-1.8,7.9-8.8,14.2-20.3,18.3C179.3,335.9,169.8,337.7,160.1,338&#10;&#9;&#9;L160.1,338z M256.5,161.8c-1.3,0-2.5,0.3-3.6,0.9c-3,1.6-5.2,4.7-6.7,9.6c-0.2,0.8-0.5,1.7-0.7,2.6c-0.5,2.6-1.5,5.1-2.8,7.3&#10;&#9;&#9;c-2,3.1-5.3,5.1-8.8,7.1c-7.7,4.4-15.6,8.5-23.6,12.2c-7.7,3.6-18.3,8.4-20.8,18.2c-0.2,0.9-0.4,1.9-0.5,2.8&#10;&#9;&#9;c-0.2,1.2-0.4,2.4-0.8,3.5c-2,5.5-8.7,7.8-14.6,9.9l-0.7,0.2c-9.3,3.2-14.5,8.6-14.2,14.8c0.3,6.6,6.6,10.7,12,12.3&#10;&#9;&#9;c2.2,0.6,4.4,1.1,6.7,1.4c3.2,0.4,6.3,1.2,9.3,2.4c1,0.4,1.9,1,2.5,1.9c1.2,2-0.4,4.9-2.6,6.7c-0.6,0.5-1.2,0.9-1.8,1.4&#10;&#9;&#9;c-2.1,1.6-4.5,3.3-5.6,5.9c-0.9,2.2-0.9,4.6,0.1,6.8c2,4.6,7.3,8,11.3,9.5l1,0.4c5.8,2.1,12.3,4.6,13.4,10c0.2,1.3,0.2,2.7-0.1,4&#10;&#9;&#9;c-1.8,8.1-10.6,12.8-17.6,15.3c-8.7,3.1-17.8,4.8-27,5.1c-0.8,0-1.4,0.6-1.4,1.4c0,0.8,0.6,1.4,1.4,1.4v0.7v-0.7&#10;&#9;&#9;c9.5-0.3,19-2,28-5.2c11-3.9,17.7-9.9,19.4-17.3c0.4-1.7,0.5-3.5,0.1-5.2c-1.4-6.9-9.1-9.8-15.2-12.1l-1-0.4&#10;&#9;&#9;c-3.7-1.4-8.2-4.4-9.7-8c-0.7-1.4-0.7-3.1-0.1-4.6c0.8-1.9,2.6-3.3,4.6-4.7c0.7-0.5,1.4-1,2-1.5c3.1-2.5,5.4-6.9,3.2-10.4&#10;&#9;&#9;c-0.9-1.3-2.3-2.3-3.8-2.9c-3.2-1.3-6.5-2.1-9.9-2.6c-2.2-0.3-4.3-0.8-6.4-1.4c-4.8-1.4-9.8-5-10-9.7c-0.3-7,9.4-11,12.3-12&#10;&#9;&#9;l0.7-0.2c6.2-2.1,13.9-4.8,16.3-11.6c0.4-1.3,0.7-2.6,0.9-4c0.1-0.9,0.3-1.7,0.5-2.5c2-7.8,9.9-12,19.3-16.3&#10;&#9;&#9;c8.1-3.7,16.1-7.9,23.8-12.3c3.8-2.2,7.4-4.4,9.8-8c1.5-2.5,2.5-5.3,3.1-8.1c0.2-0.8,0.4-1.6,0.7-2.5c1.2-4.1,3-6.7,5.3-7.9&#10;&#9;&#9;c1.5-0.7,3.3-0.7,4.8,0c1,0.4,1.7,1.3,1.9,2.3c0.1,0.8,0.8,1.3,1.6,1.1c0.4-0.1,0.7-0.3,0.9-0.6c0.2-0.3,0.3-0.6,0.2-1&#10;&#9;&#9;c-0.4-1.9-1.6-3.5-3.4-4.4C259,162.1,257.8,161.8,256.5,161.8L256.5,161.8z"/>
	<path class="st1_ramen-96" d="M92.9,256.6L92.9,256.6c-1.3-0.1-2.2-1-2.1-2.2c0.8-11,9-20.1,19.9-21.9c3-0.3,6.1-0.4,9.1-0.1&#10;&#9;&#9;c1.1,0.1,2.2,0.1,3.2,0.2c12.5,0.3,24.6-3.6,36.4-7.4c2.4-0.8,4.9-1.7,5.8-3.5c0.2-0.5,0.4-1.1,0.5-1.6c0.2-0.7,0.4-1.5,0.7-2.2&#10;&#9;&#9;c1.3-3.1,4.5-5.2,9.3-6.3c7.8-1.8,15.8-1.2,23.6-0.6c5.8,0.4,11.7,0.8,17.5,0.2c9.6-1,18.6-4.7,27-8.6c4.8-2.2,10.1-5,12.1-9.8&#10;&#9;&#9;c0.6-1.7,1-3.5,1.2-5.4c0.2-1.4,0.4-2.7,0.7-4.1c2.4-9.9,11.2-16.2,20-21.9c1-0.6,2.3-0.3,2.9,0.6c0.6,1,0.3,2.3-0.6,2.9&#10;&#9;&#9;c-8.1,5.2-16.2,10.9-18.2,19.3c-0.3,1.2-0.5,2.4-0.6,3.6c-0.2,2.2-0.7,4.3-1.4,6.4c-2.4,5.9-8.2,9.3-14.2,12&#10;&#9;&#9;c-8.7,4-18.1,7.9-28.3,8.9c-6.1,0.4-12.1,0.4-18.2-0.2c-7.8-0.6-15.1-1.1-22.3,0.6c-3.5,0.8-5.6,2.1-6.4,3.9&#10;&#9;&#9;c-0.2,0.5-0.3,1-0.4,1.5c-0.2,0.8-0.4,1.7-0.8,2.5c-1.6,3.3-5.1,4.7-8.3,5.7c-11.5,3.7-24.6,8-37.8,7.6c-1.1,0-2.2-0.1-3.4-0.2&#10;&#9;&#9;c-2.7-0.3-5.5-0.2-8.2,0.1c-8.6,1.3-15.9,9.3-16.3,18C94.9,255.7,94,256.6,92.9,256.6z"/>
	<path class="st2_ramen-96" d="M92.9,257.3h-0.1c-0.7,0-1.4-0.4-1.9-0.9c-0.5-0.5-0.8-1.3-0.7-2c0.8-11.3,9.3-20.7,20.5-22.6&#10;&#9;&#9;c3.1-0.3,6.2-0.4,9.2-0.1c1.1,0.1,2.2,0.1,3.2,0.2c12.4,0.3,24.5-3.6,36.2-7.4c2.3-0.7,4.6-1.6,5.4-3.2c0.2-0.5,0.3-1,0.4-1.5&#10;&#9;&#9;c0.2-0.8,0.4-1.6,0.7-2.3c1.4-3.3,4.7-5.6,9.8-6.7c7.9-1.8,16-1.2,23.8-0.7c5.7,0.4,11.7,0.8,17.3,0.2c9.5-1,18.4-4.6,26.8-8.5&#10;&#9;&#9;c4.7-2.2,9.9-4.9,11.7-9.4c0.6-1.7,1-3.4,1.1-5.2c0.2-1.4,0.4-2.8,0.7-4.1c2.5-10.1,11.4-16.6,20.3-22.3c1.3-0.8,3-0.5,3.9,0.8&#10;&#9;&#9;c0.4,0.6,0.5,1.4,0.4,2.2c-0.2,0.7-0.6,1.4-1.2,1.8c-8,5.1-15.9,10.8-17.9,18.9c-0.3,1.2-0.5,2.4-0.6,3.6c-0.2,2.2-0.7,4.4-1.5,6.5&#10;&#9;&#9;c-2.5,6.1-8.5,9.6-14.5,12.4c-8.8,4.1-18.3,8-28.5,9c-6.1,0.6-12.3,0.2-18.3-0.2c-7.7-0.5-15-1.1-22.1,0.5&#10;&#9;&#9;c-3.2,0.7-5.2,1.9-5.9,3.5c-0.2,0.5-0.3,0.9-0.4,1.4c-0.2,0.9-0.5,1.8-0.8,2.6c-1.7,3.6-5.4,5-8.7,6.1l-0.3,0.1&#10;&#9;&#9;c-11.5,3.7-24.6,8-37.8,7.6c-1.1,0-2.3-0.1-3.4-0.2c-2.7-0.3-5.4-0.2-8.1,0.1c-8.2,1.2-15.3,9-15.7,17.3&#10;&#9;&#9;C95.6,256.2,94.4,257.3,92.9,257.3z M115,232.9c-1.4,0-2.8,0.1-4.2,0.3c-10.6,1.8-18.5,10.6-19.3,21.2c0,0.8,0.6,1.4,1.3,1.5&#10;&#9;&#9;c0,0,0,0,0,0l0.1,0.7v-0.7c0.7,0,1.4-0.6,1.4-1.3c0.4-9,8-17.3,16.9-18.6c2.8-0.3,5.6-0.3,8.4-0.1c1.1,0.1,2.2,0.1,3.4,0.2&#10;&#9;&#9;c13,0.4,25.9-3.8,37.3-7.5l0.3-0.1c3-1,6.4-2.3,7.8-5.4c0.3-0.7,0.6-1.5,0.8-2.3c0.1-0.6,0.3-1.1,0.5-1.6c0.9-2,3.2-3.4,6.9-4.3&#10;&#9;&#9;c7.3-1.6,14.7-1.1,22.5-0.6c5.9,0.4,12,0.8,18.1,0.2c10.1-1,19.4-4.9,28.1-8.9c5.8-2.7,11.5-6,13.8-11.6c0.7-2,1.2-4.1,1.4-6.2&#10;&#9;&#9;c0.1-1.2,0.4-2.5,0.6-3.7c2.1-8.6,10.3-14.5,18.5-19.8c0.3-0.2,0.5-0.5,0.6-0.9c0.1-0.4,0-0.7-0.2-1.1c-0.4-0.6-1.3-0.8-1.9-0.4&#10;&#9;&#9;c0,0,0,0,0,0c-8.7,5.6-17.4,11.8-19.7,21.4c-0.3,1.3-0.5,2.6-0.7,3.9c-0.2,1.9-0.6,3.8-1.2,5.6c-2,5-7.5,7.9-12.4,10.2&#10;&#9;&#9;c-8.4,3.9-17.5,7.6-27.2,8.6c-5.8,0.6-11.8,0.2-17.6-0.2c-7.7-0.5-15.6-1.1-23.4,0.6c-4.6,1-7.6,3-8.8,5.9&#10;&#9;&#9;c-0.3,0.7-0.5,1.4-0.6,2.1c-0.1,0.6-0.3,1.2-0.6,1.8c-1,2.1-3.6,3.1-6.2,3.9c-11.8,3.8-24,7.8-36.6,7.4c-1.1,0-2.2-0.1-3.3-0.2&#10;&#9;&#9;C118.2,233,116.6,232.9,115,232.9z"/>
	<path class="st1_ramen-96" d="M247.2,188.6c-5.2,2.1-10.6,4.3-14.7,8.2c-5.8,5.5-8.5,13.6-13.7,19.8c-5.7,6.7-14.4,10.6-23.1,11.4&#10;&#9;&#9;c-2.9,0.3-6,0.1-8.3-1.6s-3.1-5.6-0.9-7.5c0.7-0.6,1.6-0.9,2.4-1.6s1.1-1.8,0.5-2.5c-0.8-0.9-2.2-0.2-3.1,0.5&#10;&#9;&#9;c-2.8,2.3-5.1,5.9-4,9.3s5.1,4.9,8.6,5.6c10.7,1.9,23-0.7,29.7-9.3c2.5-3.2,4-6.9,5.8-10.5c2.2-4.7,5.1-9,8.8-12.7&#10;&#9;&#9;c3.6-3.7,8.4-6.2,13.6-6.9c1.1-0.1,6.9-0.4,5.4-2.9C253.1,186,248.6,188.1,247.2,188.6z"/>
	<path class="st2_ramen-96" d="M197.8,231.5c-2.3,0-4.6-0.2-6.9-0.6c-5-0.9-8.2-3-9.2-6c-1.3-3.8,1.3-7.7,4.2-10.1c1.3-1,3-1.6,4.1-0.4&#10;&#9;&#9;c0.4,0.4,0.5,0.9,0.5,1.4c-0.1,0.8-0.4,1.5-1,2c-0.4,0.3-0.9,0.6-1.3,0.9c-0.4,0.2-0.7,0.4-1,0.7c-0.8,0.7-1.2,1.6-1.1,2.6&#10;&#9;&#9;c0.1,1.5,0.8,2.9,1.9,3.8c2.3,1.7,5.6,1.7,7.8,1.5c9-0.8,17.3-4.9,22.7-11.1c2.2-2.8,4.2-5.7,5.9-8.8c2.2-3.9,4.6-7.9,7.9-11&#10;&#9;&#9;c4.2-3.9,9.6-6.3,14.9-8.3l0,0l0.4-0.2c2.1-0.9,6.1-2.5,7.4-0.3c0.4,0.6,0.5,1.3,0.2,1.9c-0.7,1.4-3.2,1.8-5.7,2h-0.4&#10;&#9;&#9;c-5,0.7-9.7,3.1-13.2,6.7c-3.6,3.7-6.5,7.9-8.6,12.6l-1.1,2.2c-1.3,3-2.9,5.8-4.8,8.4C216.2,227.8,207.4,231.5,197.8,231.5z&#10;&#9;&#9; M188.4,215.1c-0.6,0.1-1.2,0.3-1.7,0.8c-2.4,2-4.8,5.4-3.7,8.5s5,4.5,8.1,5.1c11.7,2.1,23.1-1.4,29-9c1.8-2.6,3.4-5.3,4.7-8.2&#10;&#9;&#9;c0.4-0.7,0.7-1.5,1.1-2.2c2.2-4.8,5.2-9.2,8.9-12.9c3.8-3.8,8.7-6.3,14-7.1h0.4c3.4-0.3,4.4-0.8,4.6-1.2c0,0,0.1-0.2-0.1-0.5&#10;&#9;&#9;c-0.5-0.8-2.4-0.5-5.7,0.9l-0.5,0.2c-5.3,2.1-10.4,4.3-14.4,8.1c-3.2,3-5.5,6.9-7.7,10.7c-1.7,3.2-3.7,6.2-6,9&#10;&#9;&#9;c-5.6,6.6-14.2,10.8-23.6,11.6c-2.5,0.2-6.1,0.3-8.8-1.8c-1.5-1.2-2.4-3-2.5-4.9c-0.1-1.4,0.5-2.8,1.5-3.7c0.4-0.3,0.8-0.6,1.2-0.8&#10;&#9;&#9;c0.4-0.2,0.8-0.4,1.1-0.7c0.3-0.3,0.5-0.7,0.6-1.1c0-0.2,0-0.3-0.1-0.4C188.8,215.2,188.6,215.1,188.4,215.1z"/>
	<path class="st1_ramen-96" d="M239.5,342.5c3.7,1.2,7.4,2.5,11.2,2.6c6.3,0.1,13.1-3,18.8-0.1c0.6,0.3,1.2,0.8,1.2,1.5&#10;&#9;&#9;c0,1.1-1.4,1.5-2.5,1.5l-14,0.5c-3.1,0.2-6.1,0.1-9.2-0.3c-4.6-0.7-8.9-2.8-13.5-3.2c-5-0.4-8.4,2.1-12.8,3.6&#10;&#9;&#9;C219.5,338.7,233.3,340.5,239.5,342.5z"/>
	<path class="st0_ramen-96" d="M218.7,349.3c-0.2,0-0.3-0.1-0.4-0.1c-0.2-0.1-0.3-0.4-0.3-0.6c0.1-2.5,1.4-4.9,3.6-6.3&#10;&#9;&#9;c5-3.3,13.8-1.8,18.2-0.4l0,0l0.9,0.3c3.3,1.1,6.7,2.2,10.1,2.3c2.3,0,4.5-0.3,6.7-0.7c4.2-0.7,8.5-1.4,12.4,0.6&#10;&#9;&#9;c1.3,0.7,1.6,1.5,1.6,2c0,1.3-1.2,2.2-3.2,2.3l-14,0.5c-3.1,0.2-6.2,0.1-9.3-0.3c-2-0.4-4-0.9-5.9-1.5c-2.4-0.8-5-1.4-7.5-1.6&#10;&#9;&#9;c-3.4-0.2-6.1,0.9-8.9,2.1c-1.1,0.5-2.3,1-3.6,1.4C218.8,349.3,218.8,349.3,218.7,349.3z M230.5,344.3h1c2.7,0.3,5.3,0.9,7.8,1.7&#10;&#9;&#9;c1.9,0.6,3.8,1.1,5.8,1.5c3,0.4,6,0.5,9.1,0.3l14-0.5c0.8,0,1.9-0.3,1.9-0.8c0-0.3-0.3-0.6-0.9-0.9c-3.4-1.8-7.4-1.1-11.5-0.5&#10;&#9;&#9;c-2.3,0.4-4.7,0.7-7,0.7c-3.6-0.1-7.2-1.2-10.6-2.3l-0.9-0.3c-3.9-1.3-12.4-2.8-17,0.2c-1.4,0.9-2.4,2.4-2.8,4.1&#10;&#9;&#9;c0.8-0.3,1.6-0.7,2.4-1C224.6,345.5,227.3,344.3,230.5,344.3L230.5,344.3z"/>
	<path class="st1_ramen-96" d="M145.5,328.4c-7.4-3.2-14.6-6.9-21.5-11.1l-3.7-3.4c-1.1-0.9-2-2-2.8-3.2c-1.7-3-1.1-6.7-0.2-10&#10;&#9;&#9;c0.3-1.2,0.6-2.6,0-3.7c-0.5-0.7-1.2-1.2-2-1.6c-4.2-2-8.8-2.6-13.2-3.9c-10.5-3.2-19.3-15.2-21.7-25.5c-2.1-9.7-0.1-19.8,5.7-27.9&#10;&#9;&#9;c1.3-1.7,2.8-3.7,2.3-5.8c-0.6-2.8-5.2-3.4-6.5-0.9c-0.8,1.5-0.5,3.5-1.9,4.5c-1.8,1.3-4.3-1.1-4-3.2s2.2-3.7,4-5&#10;&#9;&#9;c3.2-2.3,7.6-4.4,10.9-2.4c1.8,1.3,2.9,3.4,3,5.6c0.8,8.8-8.8,15.1-10.4,23.7c-0.4,2.7-0.3,5.5,0.3,8.2c3.4,16,18.1,29,34.5,30.4&#10;&#9;&#9;c1.4,0.1,2.8,0.2,3.9,1.1c1.4,1.3,1.3,3.6,0.5,5.5s-2,3.5-2.2,5.4c-0.6,4.1,3.2,7.4,6.5,9.9L145.5,328.4z"/>
	<path class="st2_ramen-96" d="M145.5,329c-0.1,0-0.2,0-0.3-0.1c-7.4-3.2-14.6-7-21.6-11.1l-0.1-0.1l-3.7-3.4c-1.2-1-2.2-2.1-3-3.4&#10;&#9;&#9;c-1.8-3.2-1.2-7.1-0.3-10.5c0.3-1.2,0.6-2.3,0.1-3.2c-0.4-0.6-1-1-1.7-1.3c-2.7-1.2-5.5-2.1-8.4-2.7c-1.6-0.4-3.1-0.7-4.7-1.2&#10;&#9;&#9;C91,288.8,82,276.2,79.7,266c-2.2-9.9-0.1-20.2,5.8-28.4l0.2-0.2c1.2-1.6,2.4-3.3,2-5c-0.3-1.1-1.3-1.8-2.4-1.9&#10;&#9;&#9;c-1.1-0.2-2.2,0.2-2.8,1.2c-0.2,0.5-0.4,1.1-0.5,1.7c-0.1,1.2-0.7,2.3-1.5,3.1c-0.9,0.7-2.2,0.7-3.1,0c-1.4-0.8-2.1-2.4-2-3.9&#10;&#9;&#9;c0.3-2.4,2.3-4,4.3-5.4c4.8-3.4,8.8-4.2,11.7-2.4c2,1.4,3.3,3.7,3.4,6.1c0.4,5.1-2.5,9.5-5.3,13.7c-2.2,3.2-4.4,6.6-5.1,10.2&#10;&#9;&#9;c-0.4,2.6-0.3,5.3,0.3,7.9c3.3,15.6,17.9,28.5,33.8,29.9c1.5,0.1,3.1,0.2,4.3,1.3c1.8,1.6,1.5,4.4,0.7,6.2&#10;&#9;&#9;c-0.2,0.6-0.6,1.2-0.9,1.8c-0.6,1.1-1.1,2.2-1.3,3.4c-0.5,3.7,3.1,6.9,6.3,9.2l18.4,13.4c0.3,0.2,0.4,0.7,0.2,1&#10;&#9;&#9;C145.9,328.9,145.7,329,145.5,329L145.5,329z M124.5,316.7c4.7,2.9,9.7,5.6,14.9,8l-12.7-9.2c-3.5-2.6-7.5-6.1-6.8-10.5&#10;&#9;&#9;c0.3-1.4,0.8-2.7,1.5-3.9c0.3-0.6,0.6-1.1,0.8-1.7c0.6-1.5,0.9-3.5-0.3-4.6c-1-0.7-2.2-1-3.3-0.9c-16.6-1.5-31.7-14.8-35.2-31&#10;&#9;&#9;c-0.7-2.8-0.8-5.6-0.3-8.4c0.8-3.9,3.1-7.4,5.3-10.8c2.8-4.2,5.5-8.1,5.1-12.8c-0.1-2-1.1-3.9-2.7-5.1c-2.4-1.5-5.8-0.7-10.2,2.3&#10;&#9;&#9;c-1.8,1.2-3.5,2.7-3.7,4.5c-0.1,1,0.4,2,1.3,2.6c0.5,0.3,1.1,0.3,1.6,0c0.6-0.6,0.9-1.4,1-2.2c0.1-0.7,0.3-1.4,0.7-2&#10;&#9;&#9;c1.3-2,4-2.6,6-1.2c0.8,0.5,1.4,1.4,1.7,2.3c0.5,2.3-1,4.3-2.3,6.1l-0.2,0.2c-5.7,7.9-7.7,17.8-5.6,27.3c2.3,9.8,10.8,21.9,21.2,25&#10;&#9;&#9;c1.5,0.5,3.1,0.8,4.6,1.2c3,0.6,5.9,1.5,8.7,2.8c0.9,0.4,1.7,1,2.3,1.8c0.8,1.4,0.4,3.1,0.1,4.2c-0.8,3.3-1.4,6.8,0.2,9.5&#10;&#9;&#9;c0.7,1.1,1.6,2.1,2.7,3L124.5,316.7z"/>
</g>
<g id="Seaweed_ramen-96">
	<path class="st0_ramen-96" d="M199.4,201.4c-0.5-1.4-46.7-83.7-46.7-83.7l-82.4,22c0,0,30.2,79.1,29.3,80.5S199.4,201.4,199.4,201.4z"/>
	<path class="st0_ramen-96" d="M100,220.9c-0.7,0-0.8-0.1-0.9-0.3c-0.1-0.2-0.1-0.4-0.1-0.6c-0.2-3.1-17.6-49.5-29.2-80.1&#10;&#9;&#9;c-0.1-0.2-0.1-0.4,0-0.6c0.1-0.2,0.3-0.3,0.5-0.4l82.4-22c0.3-0.1,0.7,0.1,0.9,0.4c4.7,8.4,46.3,82.5,46.7,83.9&#10;&#9;&#9;c0.1,0.2,0,0.4-0.1,0.6c-0.1,0.2-0.3,0.3-0.5,0.4c-0.2,0.1-25,5-49.6,9.8C111.4,219.4,102.3,220.9,100,220.9z M99.1,219.7&#10;&#9;&#9;L99.1,219.7z M71.4,140.1c23.7,62,28.2,76,28.9,79.3c5.8-0.4,60.7-11.1,98-18.6c-3.7-7-31-55.6-45.9-82.3L71.4,140.1z"/>
	<path class="st0_ramen-96" d="M239.2,179.4c0,0-19.2-18.8-22.4-26.5S199,84.3,199,84.3s-88.8,31.1-90.1,30.7s0.4,8.2,2.3,19.2&#10;&#9;&#9;s27.9,71.9,27.9,71.9s17.4-6.4,28.4-8.2S239.2,179.4,239.2,179.4z"/>
	<path class="st0_ramen-96" d="M139.1,206.7c-0.3,0-0.6-0.2-0.7-0.5c-1.1-2.5-26.1-61.1-28-72c-0.4-2.2-0.7-4.2-1.1-6.2&#10;&#9;&#9;c-1.8-10.4-2.1-12.9-1.2-13.7c0.2-0.2,0.5-0.3,0.8-0.2c3.1-0.4,55.2-18.5,89.8-30.6c0.2-0.1,0.4-0.1,0.6,0c0.2,0.1,0.3,0.3,0.4,0.5&#10;&#9;&#9;c0.1,0.6,14.7,60.9,17.8,68.5s22.1,26.1,22.2,26.3c0.2,0.2,0.3,0.5,0.2,0.7c-0.1,0.3-0.3,0.5-0.5,0.5c-0.6,0.2-61,16.5-71.9,18.3&#10;&#9;&#9;s-28.1,8.1-28.2,8.2C139.2,206.7,139.1,206.7,139.1,206.7z M109.2,115.6c-0.2,1.3,0.7,6.8,1.7,12.2c0.3,1.9,0.7,4,1.1,6.2&#10;&#9;&#9;c1.7,10.2,24.8,64.4,27.6,71c3.3-1.2,18.1-6.4,27.8-8c9.9-1.7,61.7-15.6,70.5-18c-3.9-3.9-18.8-18.9-21.6-25.9&#10;&#9;&#9;c-3-7.4-15.9-60.4-17.7-67.9C160,98.7,114.7,114.4,109.2,115.6z M108.6,115.6c0.1,0,0.2,0,0.3,0&#10;&#9;&#9;C108.9,115.7,108.7,115.7,108.6,115.6z"/>
	<path class="st1_ramen-96" d="M195,192.2c-0.1,0-0.3-0.1-0.4-0.1c-7.4-5.9-14-12.8-19.7-20.4c-9.4-12.4-20.9-47.8-22.6-53.1l-38.8,9.6&#10;&#9;&#9;c-0.4,0.1-0.8-0.1-0.8-0.5c0,0,0,0,0,0c-0.1-0.4,0.1-0.8,0.5-0.8l39.4-9.8c0.4-0.1,0.7,0.1,0.8,0.5c0.1,0.4,12.8,40.4,22.6,53.3&#10;&#9;&#9;c5.6,7.5,12.1,14.3,19.4,20.1c0.3,0.2,0.4,0.7,0.2,1C195.4,192.1,195.2,192.2,195,192.2L195,192.2z"/>
</g>
<g id="Eggs_ramen-96">
	<path class="st2_ramen-96" d="M108.1,274.8c7.6,1,14.8,4.2,22.5,4.2c7.1,0,14.2-1.7,21.3-2.8c15.7-13.7,21.4-30.5,21.7-50&#10;&#9;&#9;c-11.1-13-51.4-21.3-65.3-4.4c-17,20.6-14.6,36.5-3.6,49.5C105.9,272.5,107,273.7,108.1,274.8z"/>
	<path class="st0_ramen-96" d="M130.5,279.7c-4.7,0-9.2-1.1-13.5-2.3c-3-0.8-6-1.5-9-1.9c-0.1,0-0.3-0.1-0.4-0.2c-1.2-1.1-2.3-2.3-3.3-3.6&#10;&#9;&#9;c-13-15.2-11.8-31.7,3.6-50.4c5.1-6.2,14.3-9.7,25.9-9.8c15.8-0.2,33.6,6.1,40.4,14.1c0.1,0.1,0.2,0.3,0.2,0.5&#10;&#9;&#9;c-0.3,21.7-7.3,37.7-22,50.6c-0.1,0.1-0.2,0.1-0.4,0.2c-1.8,0.3-3.6,0.6-5.3,0.9C141.3,278.9,135.9,279.5,130.5,279.7L130.5,279.7z&#10;&#9;&#9; M108.4,274.1c3,0.5,6,1.1,8.9,1.9c4.3,1.1,8.7,2.2,13.2,2.2h0.1c5.3-0.2,10.6-0.8,15.9-1.9c1.7-0.3,3.5-0.6,5.2-0.9&#10;&#9;&#9;c14.2-12.5,21-28.1,21.3-49.1c-6.7-7.7-23.9-13.6-39.2-13.4c-11.2,0.1-20,3.4-24.8,9.2c-14.9,18.1-16,34-3.6,48.6&#10;&#9;&#9;C106.3,272,107.4,273.1,108.4,274.1z"/>
	<path class="st1_ramen-96" d="M153.6,263.7c-16.7,14.2-33.9,10.7-45-2.3s-11.8-30.6,4.9-44.8S157.9,197,169,210S170.3,249.5,153.6,263.7z"/>
	<path class="st0_ramen-96" d="M131.4,273.5c-8.5,0-16.7-3.9-23.3-11.6c-12.5-14.6-10.5-32.6,5-45.7c16.6-14.1,44.9-20.1,56.4-6.6&#10;&#9;&#9;s1.2,40.5-15.5,54.7l0,0C146.8,270.4,138.9,273.5,131.4,273.5z M149.2,203.4c-10.9,0-24.1,4.3-35.2,13.8&#10;&#9;&#9;c-17.9,15.3-14.3,32.7-4.8,43.8s26,17.5,44,2.2l0,0c19.7-16.7,24.4-42.1,15.3-52.7C164.5,205.9,157.5,203.4,149.2,203.4&#10;&#9;&#9;L149.2,203.4z M153.6,263.7L153.6,263.7z"/>
	<circle class="st3_ramen-96 targetColor" cx="131" cy="242.3" r="20.5" style="fill: rgb(104, 225, 253);"/>
	<path class="st0_ramen-96" d="M131,263.6c-11.7,0-21.2-9.5-21.2-21.2c0-11.7,9.5-21.2,21.2-21.2s21.2,9.5,21.2,21.2c0,6.2-2.7,12.1-7.5,16.2&#10;&#9;&#9;l0,0C140.9,261.8,136,263.6,131,263.6z M131,222.5c-11,0-19.8,8.9-19.8,19.9c0,11,8.9,19.8,19.9,19.8c4.7,0,9.3-1.7,12.9-4.8l0,0&#10;&#9;&#9;c8.3-7.1,9.4-19.6,2.3-28C142.4,225,136.8,222.5,131,222.5L131,222.5z M144.3,258L144.3,258z"/>
	<path class="st2_ramen-96" d="M190.4,341.6c0,0,6.5,5.5,20.7,0c4.1-8.6,5.7-18.2,4.6-27.6c-1.9-15.6-16.8-29.1-16.8-29.1L190.4,341.6z"/>
	<path class="st0_ramen-96" d="M199.4,344.8c-6.2,0-9.2-2.5-9.4-2.6c-0.2-0.2-0.3-0.4-0.2-0.6l8.4-56.8c0-0.3,0.2-0.5,0.5-0.6&#10;&#9;&#9;c0.2-0.1,0.5,0,0.7,0.1c0.6,0.6,15.1,13.9,17,29.6c1.2,9.6-0.4,19.4-4.6,28.1c-0.1,0.1-0.2,0.3-0.4,0.3&#10;&#9;&#9;C207.5,343.9,203.5,344.7,199.4,344.8z M191.2,341.3c1.4,0.9,7.7,4.3,19.4-0.2c3.9-8.4,5.4-17.8,4.4-27&#10;&#9;&#9;c-1.6-12.9-12.3-24.5-15.6-27.8L191.2,341.3z M190.4,341.6L190.4,341.6z"/>
	<path class="st1_ramen-96" d="M148.2,295.7c0.6,1.4,1.2,2.8,2,4.2c1.9,3.4,5.1,7.8,8.9,8.8c6.5,1.6,14.1,7.2,18,13.9c2.7,4.6,3.9,8.7,7.2,13&#10;&#9;&#9;c1.8,2.3,3.8,4.3,6.1,6c0,0,16.1-20.2,15.6-39.2c-0.2-8-2.9-13.5-6.7-17.1l-0.5-0.4c-5.3-4.8-12.8-6.3-19.3-6&#10;&#9;&#9;C168,279.4,155.2,287.8,148.2,295.7z"/>
	<path class="st0_ramen-96" d="M190.4,342.3c-0.2,0-0.3,0-0.4-0.1c-2.3-1.8-4.4-3.8-6.2-6.2c-1.8-2.5-3.4-5.2-4.6-8c-0.8-1.6-1.6-3.3-2.6-5&#10;&#9;&#9;c-3.7-6.3-10.9-11.9-17.5-13.6c-4.1-1-7.3-5.5-9.4-9.1c-0.8-1.4-1.5-2.8-2.1-4.3c-0.1-0.2,0-0.5,0.1-0.7c7-7.9,20-16.6,31.9-17.1&#10;&#9;&#9;c4.6-0.2,13.2,0.4,19.8,6.2c0.2,0.1,0.3,0.3,0.5,0.5c4.4,4.2,6.7,10.1,6.9,17.6c0.5,19-15.1,38.8-15.8,39.6&#10;&#9;&#9;C190.8,342.3,190.6,342.4,190.4,342.3z M149,295.9c0.5,1.3,1.2,2.5,1.8,3.7c1.9,3.4,4.9,7.6,8.5,8.5c7,1.8,14.6,7.6,18.4,14.2&#10;&#9;&#9;c1,1.8,1.9,3.5,2.6,5.1c1.2,2.7,2.7,5.3,4.5,7.8c1.6,2,3.4,3.9,5.4,5.5c2.5-3.4,15.5-21.4,15-38.2c-0.2-7.1-2.4-12.7-6.5-16.6&#10;&#9;&#9;c-0.1-0.1-0.3-0.3-0.4-0.4c-6.1-5.5-14.4-6-18.8-5.8C168.3,280,155.9,288.3,149,295.9z"/>
	<path class="st3_ramen-96 targetColor" d="M150.2,299.9c1.9,3.4,5.1,7.8,8.9,8.8c6.5,1.6,14.1,7.2,18,13.9c2.7,4.6,3.9,8.7,7.2,13c3.1-6.3,6-18-4.7-31.5&#10;&#9;&#9;C170.1,292.3,158.4,295.3,150.2,299.9z" style="fill: rgb(104, 225, 253);"/>
	<path class="st0_ramen-96" d="M184.3,336.3c-0.2,0-0.4-0.1-0.6-0.3c-1.8-2.5-3.4-5.2-4.6-8c-0.8-1.6-1.6-3.3-2.6-5&#10;&#9;&#9;c-3.7-6.3-10.9-11.9-17.5-13.6c-4.1-1-7.3-5.5-9.4-9.1c-0.1-0.2-0.1-0.4-0.1-0.5c0.1-0.2,0.2-0.3,0.3-0.4&#10;&#9;&#9;c8.4-4.8,20.5-7.8,30.3,4.4c11.1,14,7.8,26.2,4.8,32.2C184.8,336.2,184.6,336.3,184.3,336.3L184.3,336.3z M151.2,300.2&#10;&#9;&#9;c1.9,3.2,4.8,7,8.1,7.9c7,1.8,14.6,7.6,18.4,14.2c1,1.8,1.9,3.5,2.6,5.1c1.1,2.4,2.3,4.7,3.8,6.8c2.7-6,4.9-17.1-5.1-29.7&#10;&#9;&#9;C170.1,293.4,159.1,295.9,151.2,300.2z"/>
</g>
<g id="Chashu_ramen-96">
	<path class="st0_ramen-96" d="M365.5,266.4c19.9-8.7,39.4-21,49.9-39.9c16.5-29.5,5.9-68.9-18.1-92.7c-6.6-6.6-14.6-12.4-23.8-14&#10;&#9;&#9;c-8.5-1.4-17.2,1-24.9,4.8c-37.1,18.6-49.7,59.3-80,84.6c-18.9,15.7-67,32.7-43,64.5c14.8,19.6,48.1,15.8,69.1,12.7&#10;&#9;&#9;C318.8,282.7,343.2,276.2,365.5,266.4z"/>
	<path class="st0_ramen-96" d="M266.9,289.7c-15.6,0-32.5-3.1-41.8-15.5c-5.5-7.2-7.6-14.3-6.4-21c2.6-14.1,19.1-24.5,33.8-33.7&#10;&#9;&#9;c5.9-3.8,11.5-7.3,15.7-10.7c12.6-10.4,22.2-23.8,31.6-36.8c13.1-18.2,26.8-37,48.5-47.9c8.9-4.5,17.7-6.2,25.4-4.9&#10;&#9;&#9;c8,1.3,16,6,24.2,14.2c12.2,12.2,20.7,27.7,24.4,44.6c3.9,17.8,1.7,34.8-6.2,49c-9,16.1-25.5,29.3-50.3,40.2l0,0&#10;&#9;&#9;c-21,9.2-45.5,16.1-70.9,20C285.6,288.7,276.2,289.5,266.9,289.7z M368.5,120.2c-6.1,0-12.8,1.7-19.6,5.2&#10;&#9;&#9;c-21.5,10.8-35,29.4-48,47.4c-9.4,13-19.1,26.4-31.8,37c-4.2,3.5-9.9,7.1-15.9,10.9c-14.4,9.1-30.6,19.3-33.1,32.7&#10;&#9;&#9;c-1.2,6.4,0.8,12.9,6.1,19.9c15.4,20.4,52.5,14.8,68.4,12.4c25.3-3.8,49.7-10.7,70.5-19.9l0,0c24.5-10.8,40.8-23.8,49.6-39.6&#10;&#9;&#9;c7.7-13.9,9.8-30.5,6-47.9c-3.7-16.6-12-31.8-24-43.8c-8-8-15.7-12.5-23.4-13.8C371.7,120.3,370.1,120.2,368.5,120.2z"/>
	<path class="st3_ramen-96 targetColor" d="M368.2,259.6c19.9-8.8,39.4-21,49.9-39.9c16.5-29.5,5.9-68.9-18.1-92.7c-6.6-6.6-14.6-12.4-23.8-14&#10;&#9;&#9;c-8.5-1.4-17.2,1-24.9,4.8c-32.5,16.3-48.9,48.8-76.2,70.8c-17.7,14.3-39.1,25.3-50.9,44.8c-21.9,36.1,30.2,49.4,55,48&#10;&#9;&#9;C309.2,279.9,340.7,271.7,368.2,259.6z" style="fill: rgb(104, 225, 253);"/>
	<path class="st0_ramen-96" d="M275.7,282.2c-17.9,0-45.2-6.4-54.3-21.6c-4.8-7.9-4-17.2,2.3-27.6c8.6-14.2,22.4-24.1,35.8-33.6&#10;&#9;&#9;c5.1-3.6,10.4-7.4,15.3-11.4c10.8-8.7,20.1-19.3,29.1-29.5c13.6-15.5,27.6-31.5,47.2-41.3c8.9-4.5,17.7-6.2,25.3-4.9&#10;&#9;&#9;c8,1.3,16,6,24.2,14.2c12.2,12.2,20.7,27.6,24.5,44.5c3.9,17.8,1.7,34.8-6.2,49c-9,16.1-25.4,29.3-50.3,40.2l-0.3-0.6l0.3,0.6&#10;&#9;&#9;c-28.6,12.6-60.3,20.4-89.2,21.9C278.1,282.2,276.9,282.2,275.7,282.2z M371.2,113.2c-6.1,0-12.8,1.8-19.6,5.2&#10;&#9;&#9;c-19.4,9.7-33.4,25.6-46.9,41c-9,10.3-18.3,20.9-29.2,29.7c-4.9,4-10.2,7.8-15.3,11.4c-13.2,9.5-26.9,19.3-35.4,33.3&#10;&#9;&#9;c-6,9.9-6.7,18.7-2.3,26.1c5.3,8.9,16.7,13.9,25.4,16.6c10.1,3.1,20.7,4.5,31.2,4.2c28.8-1.5,60.3-9.3,88.7-21.8l0,0&#10;&#9;&#9;c24.5-10.8,40.8-23.8,49.6-39.6c7.8-13.9,9.9-30.5,6-48c-3.7-16.6-12-31.8-24-43.8c-8.1-8-15.7-12.5-23.5-13.8&#10;&#9;&#9;C374.5,113.4,372.9,113.3,371.2,113.2L371.2,113.2z"/>
	<path class="st0_ramen-96" d="M409,172.1c-6.6-6.6-14.6-12.4-23.8-14c-8.5-1.4-17.2,1-24.9,4.8c-19,9.5-32.3,27.2-48.7,40.8&#10;&#9;&#9;c-14.7,12.1-31.8,20.9-47,32.4s-28.9,26.8-32.2,45.5c-1.1,5.7-1.3,11.6-0.4,17.4c18.3,9.2,41.1,10.3,60.9,11.7&#10;&#9;&#9;c20.4,1.5,40.7,3.3,60.9,2.6c8-2.5,15.8-5.4,23.4-8.6c19.9-8.7,39.4-21,49.9-39.9C443.6,235.2,433,195.9,409,172.1z"/>
	<path class="st0_ramen-96" d="M344.9,314.2c-15.1,0-30.3-1.1-45.2-2.3l-10.6-0.8c-18.8-1.3-40.1-2.9-57.4-11.5c-0.2-0.1-0.4-0.3-0.4-0.5&#10;&#9;&#9;c-0.9-5.8-0.8-11.8,0.4-17.6c2.9-16.4,13.9-31.9,32.5-46c6.8-5.1,14.1-9.8,21.1-14.3c8.7-5.6,17.8-11.4,25.9-18.1&#10;&#9;&#9;c5.6-4.6,10.9-9.8,16-14.8c9.9-9.7,20.2-19.7,32.8-26c8.9-4.5,17.7-6.2,25.4-4.9c8,1.3,16,6,24.2,14.2l0,0&#10;&#9;&#9;c12.2,12.2,20.7,27.7,24.4,44.6c3.9,17.8,1.7,34.8-6.2,49c-9,16.1-25.5,29.3-50.3,40.2c-7.7,3.3-15.5,6.2-23.5,8.6&#10;&#9;&#9;c-0.1,0-0.1,0-0.2,0C350.8,314.2,347.9,314.2,344.9,314.2z M353.8,313.3L353.8,313.3z M232.7,298.5c17,8.4,38,9.9,56.5,11.2&#10;&#9;&#9;l10.6,0.8c17.7,1.3,36,2.7,53.8,2.1c7.9-2.5,15.7-5.3,23.3-8.6c24.5-10.8,40.8-23.8,49.6-39.6c7.8-13.9,9.8-30.5,6-48&#10;&#9;&#9;c-3.7-16.6-12-31.8-24-43.8l0,0c-8-8-15.7-12.5-23.4-13.8c-7.3-1.2-15.8,0.4-24.4,4.8c-12.4,6.2-22.6,16.1-32.4,25.8&#10;&#9;&#9;c-5.2,5-10.5,10.3-16.1,14.9c-8.2,6.8-17.2,12.6-26,18.2c-7,4.5-14.3,9.1-21,14.2c-18.3,13.9-29.1,29-31.9,45&#10;&#9;&#9;C232,287.2,231.9,292.9,232.7,298.5L232.7,298.5z"/>
	<path class="st3_ramen-96 targetColor" d="M411.8,165.2c-6.6-6.6-14.6-12.4-23.8-14c-8.5-1.4-17.2,1-24.9,4.8c-19,9.5-32.3,27.2-48.7,40.8&#10;&#9;&#9;c-14.7,12.1-31.8,20.9-47,32.4s-28.9,26.8-32.2,45.5c-2,11.4-0.8,20.2,2.8,26.8c17.2,6.8,37.3,7.8,55,9.1c13.2,1,26.2,2.1,39.3,2.5&#10;&#9;&#9;c20-4.8,37.9-11,47.8-15.4c19.9-8.8,39.4-21,49.9-39.9C446.3,228.4,435.8,189.1,411.8,165.2z" style="fill: rgb(104, 225, 253);"/>
	<path class="st0_ramen-96" d="M332.2,313.9L332.2,313.9c-10.8-0.4-21.8-1.2-32.5-2l-10.5-0.8c-16.6-1.2-35.4-2.5-51.5-8.9&#10;&#9;&#9;c-0.2-0.1-0.3-0.2-0.4-0.3c-3.8-7.1-4.8-16.3-2.8-27.3c2.9-16.4,13.9-31.8,32.5-45.9c6.8-5.1,14.1-9.8,21.1-14.3&#10;&#9;&#9;c8.7-5.6,17.8-11.4,25.9-18.1c5.6-4.6,10.9-9.8,16-14.8c9.9-9.7,20.2-19.7,32.8-26c8.9-4.5,17.7-6.2,25.3-4.9c8,1.3,16,6,24.2,14.2&#10;&#9;&#9;l0,0c12.2,12.2,20.7,27.7,24.4,44.5c3.9,17.8,1.7,34.8-6.2,49c-9,16.1-25.4,29.3-50.3,40.2c-9.2,4-27.2,10.5-47.9,15.4&#10;&#9;&#9;C332.3,314,332.2,314,332.2,313.9z M238.4,301c15.8,6.2,34.5,7.5,50.9,8.7l10.5,0.8c10.6,0.8,21.6,1.6,32.3,2&#10;&#9;&#9;c20.5-4.9,38.4-11.3,47.5-15.3c24.5-10.8,40.8-23.8,49.6-39.6c7.8-13.9,9.9-30.5,6-48c-3.6-16.6-12-31.8-24-43.9&#10;&#9;&#9;c-8.1-8-15.7-12.5-23.5-13.8c-7.4-1.2-15.8,0.4-24.5,4.8c-12.4,6.3-22.6,16.2-32.4,25.8c-5.2,5-10.5,10.3-16.1,14.9&#10;&#9;&#9;c-8.2,6.8-17.2,12.6-26,18.2c-7,4.5-14.3,9.1-21,14.2c-18.4,13.9-29.1,29.1-32,45.1C233.9,285.4,234.8,294.2,238.4,301z"/>
	<path class="st0_ramen-96" d="M306.9,251.8c-0.4,0-0.7-0.3-0.7-0.7c0-0.3,0.2-0.6,0.5-0.7l56.3-17.8c0.4-0.1,0.8,0.2,0.8,0.5&#10;&#9;&#9;c0.1,0.3-0.1,0.7-0.4,0.8l-56.3,17.8C307.1,251.8,307,251.8,306.9,251.8z"/>
	<path class="st0_ramen-96" d="M309.3,274.1c-3.1,0.1-6.2-0.1-9.2-0.5c-0.4-0.1-0.6-0.5-0.5-0.9c0,0,0,0,0,0c0.1-0.4,0.5-0.6,0.9-0.5&#10;&#9;&#9;c5.1,1.4,37.1-0.5,37.4-0.5c0.4,0,0.7,0.3,0.7,0.7c0,0,0,0,0,0c0,0.4-0.3,0.7-0.7,0.7C337,273.1,320.4,274.1,309.3,274.1z"/>
	<path class="st0_ramen-96" d="M301.5,173.6c-0.4,0-0.7-0.3-0.7-0.7c0-0.4,0.3-0.7,0.7-0.7l20.5-1.1c0.4,0,0.7,0.3,0.7,0.6c0,0,0,0,0,0&#10;&#9;&#9;c0,0.4-0.3,0.7-0.7,0.7c0,0,0,0,0,0L301.5,173.6L301.5,173.6z"/>
	<path class="st0_ramen-96" d="M292.1,191.3c-0.4-0.1-0.6-0.5-0.5-0.8c0.1-0.2,0.2-0.4,0.4-0.5l19.7-3.5c0.4-0.1,0.7,0.2,0.8,0.6c0,0,0,0,0,0&#10;&#9;&#9;c0.1,0.4-0.2,0.7-0.5,0.8c0,0,0,0,0,0l-19.7,3.5L292.1,191.3z"/>
</g>
<g id="Onion_Leaf_ramen-96">
	<path class="st3_ramen-96 targetColor" d="M254.6,301.4c-3.2-7.5-15.6-0.9-19.6,1.7c-1.4,0.9-2.7,2-3.6,3.5c-0.9,1.5-0.9,3.3-0.1,4.8&#10;&#9;&#9;c1.1,1.6,3.4,2,5.4,2C241.6,313.2,257.7,308.9,254.6,301.4z M245.9,306.3c-2.8,1.2-5.8,1.6-8.8,1.2c-0.3,0-0.7-0.1-0.8-0.5&#10;&#9;&#9;c0-0.2,0-0.3,0.1-0.5c1-2.6,3.6-4.2,6.2-5c3.1-0.9,6.2-1.5,9.4-1.7C251.8,302.5,248.2,305.2,245.9,306.3z" style="fill: rgb(104, 225, 253);"/>
	<path class="st0_ramen-96" d="M236.6,314c-2.8,0-4.7-0.8-5.8-2.3c-1-1.7-1-3.8,0-5.5c1-1.5,2.2-2.8,3.8-3.7c0.4-0.3,10.3-6.9,16.7-5&#10;&#9;&#9;c1.8,0.5,3.2,1.8,3.9,3.6l0,0c0.8,1.7,0.6,3.7-0.5,5.2c-3.3,5-14.1,7.6-17.9,7.7H236.6z M248.9,298.6c-4.3,0-10.1,2.9-13.4,5.1&#10;&#9;&#9;c-1.3,0.8-2.5,1.9-3.3,3.2c-0.7,1.2-0.8,2.7-0.1,4c0.8,1.1,2.4,1.8,4.8,1.7c3.7,0,13.9-2.7,16.8-7c0.8-1.1,1-2.6,0.4-3.9l0,0&#10;&#9;&#9;c-0.3-0.7-0.7-1.3-1.3-1.8c-0.2,3.1-4,6-6.5,7.1c-2.9,1.2-6,1.7-9.1,1.2c-1-0.1-1.3-0.7-1.4-1c-0.1-0.3,0-0.6,0.1-0.9&#10;&#9;&#9;c1-2.5,3.4-4.5,6.7-5.4c3-0.9,6-1.5,9.1-1.8c-0.2-0.1-0.4-0.1-0.6-0.2C250.2,298.7,249.5,298.6,248.9,298.6L248.9,298.6z&#10;&#9;&#9; M237,306.7h0.2c2.8,0.4,5.7,0,8.4-1.1l0,0c2-0.9,4.9-3,5.6-5.2c-2.8,0.3-5.6,0.8-8.3,1.7C240,303,237.9,304.7,237,306.7z"/>
	<path class="st3_ramen-96 targetColor" d="M298.2,321.5c-0.4-8.1-14.4-6.1-19-5c-1.6,0.3-3.2,1-4.5,2c-1.3,1.1-2,2.8-1.7,4.5c0.5,1.9,2.5,3,4.4,3.7&#10;&#9;&#9;C282,328.3,298.7,329.7,298.2,321.5z M288.4,323.2c-3,0.2-6-0.5-8.6-1.9c-0.3-0.1-0.6-0.4-0.6-0.7c0-0.2,0.1-0.3,0.2-0.4&#10;&#9;&#9;c1.8-2.1,4.8-2.8,7.5-2.6c3.2,0.1,6.4,0.7,9.4,1.5C295.2,321.7,290.9,323,288.4,323.2L288.4,323.2z" style="fill: rgb(104, 225, 253);"/>
	<path class="st0_ramen-96" d="M286.5,328.6c-3.2,0-6.3-0.4-9.4-1.3c-2.7-0.9-4.3-2.4-4.8-4.2c-0.4-1.9,0.3-3.9,1.9-5.2&#10;&#9;&#9;c1.4-1.1,3.1-1.8,4.8-2.2c0.5-0.1,12-3,17.4,1c1.5,1.1,2.4,2.8,2.5,4.7l0,0c0.1,1.9-0.7,3.7-2.3,4.8&#10;&#9;&#9;C294.3,328,290.4,328.6,286.5,328.6z M287.9,316.2c-2.9,0-5.7,0.4-8.5,1.1c-1.5,0.3-3,1-4.2,1.9c-1.1,0.9-1.7,2.3-1.5,3.8&#10;&#9;&#9;c0.4,1.3,1.7,2.4,3.9,3.2c3.5,1.2,14,2.2,18.2-0.9c1.2-0.8,1.8-2.2,1.7-3.6l0,0c0-0.7-0.2-1.5-0.6-2.1c-1.2,2.9-5.8,4.3-8.5,4.5&#10;&#9;&#9;c-3.1,0.2-6.2-0.5-9-1.9c-0.9-0.5-1-1.1-1-1.4c0.1-0.3,0.2-0.6,0.4-0.8c1.8-2,4.7-3,8.1-2.9c3.1,0.1,6.2,0.6,9.1,1.4&#10;&#9;&#9;c-0.1-0.1-0.3-0.3-0.5-0.4C293.9,316.6,291,316.1,287.9,316.2L287.9,316.2z M279.9,320.6l0.1,0.1c2.5,1.3,5.4,1.9,8.3,1.8l0,0&#10;&#9;&#9;c2.2-0.2,5.6-1.2,7-3c-2.7-0.7-5.6-1.1-8.4-1.3C283.9,318.1,281.4,319,279.9,320.6z"/>
	<path class="st3_ramen-96 targetColor" d="M283.4,313.1c-0.4-8.1-14.4-6.1-19-5c-1.6,0.3-3.2,1-4.5,2c-1.3,1.1-2,2.8-1.7,4.5c0.5,1.9,2.5,3,4.4,3.7&#10;&#9;&#9;C267.1,319.9,283.8,321.2,283.4,313.1z M273.5,314.8c-3,0.2-6-0.5-8.6-1.9c-0.3-0.1-0.6-0.4-0.6-0.7c0-0.2,0.1-0.3,0.2-0.4&#10;&#9;&#9;c1.8-2,4.8-2.8,7.5-2.6c3.2,0.1,6.4,0.7,9.4,1.5C280.4,313.3,276.1,314.6,273.5,314.8z" style="fill: rgb(104, 225, 253);"/>
	<path class="st0_ramen-96" d="M271.7,320.2c-3.2,0-6.3-0.4-9.4-1.3c-2.7-0.9-4.3-2.3-4.8-4.2c-0.4-1.9,0.3-3.9,1.9-5.1&#10;&#9;&#9;c1.4-1.1,3.1-1.9,4.8-2.2c0.5-0.1,12-3,17.4,1c1.5,1.1,2.4,2.8,2.5,4.7l0,0c0.1,1.9-0.7,3.7-2.2,4.8&#10;&#9;&#9;C279.4,319.6,275.5,320.2,271.7,320.2z M273.1,307.7c-2.9,0-5.7,0.4-8.5,1.1c-1.5,0.3-3,1-4.2,1.9c-1.1,0.9-1.7,2.3-1.5,3.7&#10;&#9;&#9;c0.4,1.4,1.7,2.4,3.9,3.2c3.5,1.2,14,2.2,18.2-0.9c1.2-0.8,1.8-2.2,1.7-3.6l0,0c0-0.7-0.2-1.5-0.6-2.1c-1.2,2.9-5.8,4.3-8.5,4.5&#10;&#9;&#9;c-3.1,0.2-6.2-0.5-9-1.9c-0.9-0.5-1-1.1-1-1.4c0.1-0.3,0.2-0.6,0.4-0.8c1.8-2,4.7-3,8.1-2.9c3.1,0.1,6.1,0.6,9.1,1.4&#10;&#9;&#9;c-0.1-0.1-0.3-0.3-0.5-0.4C279,308.2,276.1,307.7,273.1,307.7L273.1,307.7z M265.1,312.2l0.1,0.1c2.5,1.3,5.4,2,8.3,1.8l0,0&#10;&#9;&#9;c2.2-0.2,5.6-1.2,7-3c-2.7-0.7-5.6-1.1-8.4-1.3C269.1,309.7,266.5,310.5,265.1,312.2L265.1,312.2z"/>
	<path class="st3_ramen-96 targetColor" d="M231.3,212.1c-0.4-8.1-14.4-6.1-19-5c-1.6,0.3-3.2,1-4.5,2c-1.3,1.1-2,2.8-1.7,4.4c0.5,1.9,2.5,3,4.4,3.7&#10;&#9;&#9;C215,218.9,231.8,220.2,231.3,212.1z M221.5,213.8c-3,0.2-6-0.5-8.6-1.9c-0.3-0.1-0.6-0.4-0.6-0.7c0-0.2,0.1-0.3,0.2-0.4&#10;&#9;&#9;c1.9-2,4.8-2.8,7.6-2.6c3.2,0.1,6.4,0.7,9.4,1.5C228.3,212.2,224,213.6,221.5,213.8L221.5,213.8z" style="fill: rgb(104, 225, 253);"/>
	<path class="st0_ramen-96" d="M219.6,219.2c-3.2,0-6.3-0.4-9.4-1.3c-2.7-0.9-4.3-2.3-4.8-4.2c-0.4-1.9,0.3-3.9,1.9-5.2&#10;&#9;&#9;c1.4-1.1,3.1-1.8,4.8-2.2c0.5-0.1,12.1-3,17.4,0.9c1.5,1.1,2.4,2.8,2.5,4.7l0,0c0.1,1.9-0.7,3.7-2.3,4.8&#10;&#9;&#9;C227.4,218.6,223.4,219.2,219.6,219.2z M221,206.7c-2.9,0-5.7,0.4-8.5,1.1c-1.5,0.3-3,1-4.2,1.9c-1.1,0.9-1.7,2.3-1.4,3.8&#10;&#9;&#9;c0.4,1.3,1.7,2.4,3.9,3.2c3.5,1.2,14,2.2,18.2-0.9c1.2-0.8,1.8-2.2,1.7-3.6c0-0.7-0.2-1.5-0.6-2.1c-1.2,2.9-5.8,4.3-8.5,4.5&#10;&#9;&#9;c-3.1,0.2-6.2-0.5-9-1.9c-0.9-0.5-1-1.1-1-1.4c0-0.3,0.2-0.6,0.4-0.8c1.8-2,4.7-3,8.1-2.9c3.1,0.1,6.1,0.6,9.1,1.4&#10;&#9;&#9;c-0.1-0.1-0.3-0.3-0.4-0.4C226.9,207.2,224,206.7,221,206.7z M213,211.2l0.1,0.1c2.5,1.3,5.4,1.9,8.3,1.8l0,0c2.2-0.2,5.6-1.2,7-3&#10;&#9;&#9;c-2.7-0.7-5.6-1.1-8.4-1.3C217,208.7,214.5,209.5,213,211.2z"/>
	<path class="st3_ramen-96 targetColor" d="M215.2,230.6c-0.4-8.1-14.4-6.1-19-5c-1.6,0.3-3.2,1-4.5,2.1c-1.3,1.1-2,2.8-1.7,4.5c0.5,1.9,2.5,3,4.4,3.7&#10;&#9;&#9;C198.9,237.4,215.6,238.7,215.2,230.6z M205.3,232.3c-3,0.2-6-0.5-8.6-1.9c-0.3-0.1-0.6-0.4-0.6-0.7c0-0.2,0.1-0.3,0.2-0.4&#10;&#9;&#9;c1.8-2.1,4.8-2.8,7.6-2.6c3.2,0.1,6.4,0.7,9.4,1.5C212.2,230.8,207.9,232.1,205.3,232.3z" style="fill: rgb(104, 225, 253);"/>
	<path class="st0_ramen-96" d="M203.5,237.7c-3.2,0-6.3-0.4-9.4-1.3c-2.7-0.9-4.3-2.3-4.8-4.2c-0.4-1.9,0.3-3.9,1.9-5.1&#10;&#9;&#9;c1.4-1.1,3.1-1.9,4.8-2.2c0.5-0.1,12-3,17.4,1c1.5,1.1,2.4,2.8,2.5,4.7l0,0c0.1,1.9-0.7,3.7-2.3,4.8&#10;&#9;&#9;C211.2,237.1,207.3,237.7,203.5,237.7z M204.9,225.2c-2.9,0-5.7,0.4-8.5,1.1c-1.5,0.3-3,1-4.2,1.9c-1.1,0.9-1.7,2.3-1.4,3.7&#10;&#9;&#9;c0.4,1.4,1.7,2.4,3.9,3.2c3.5,1.2,14,2.2,18.2-0.9c1.2-0.8,1.8-2.2,1.7-3.6l0,0c0-0.7-0.2-1.5-0.6-2.1c-1.2,2.9-5.8,4.3-8.6,4.5&#10;&#9;&#9;c-3.1,0.2-6.2-0.5-9-1.9c-0.9-0.5-1-1.1-1-1.4c0.1-0.3,0.2-0.6,0.4-0.8c2.1-2.1,5.1-3.2,8.1-2.9c3.1,0.1,6.2,0.6,9.1,1.4l-0.5-0.4&#10;&#9;&#9;C210.8,225.7,207.9,225.2,204.9,225.2z M196.8,229.7l0.1,0.1c2.5,1.3,5.4,2,8.3,1.8l0,0c2.2-0.2,5.6-1.2,7-3&#10;&#9;&#9;c-2.7-0.7-5.6-1.1-8.4-1.3C200.9,227.2,198.3,228.1,196.8,229.7L196.8,229.7z"/>
	<path class="st3_ramen-96 targetColor" d="M129.9,297.8c-0.4-8.1-14.4-6.1-19-5c-1.6,0.3-3.2,1-4.5,2c-1.3,1.1-2,2.8-1.7,4.5c0.5,1.9,2.5,3,4.4,3.7&#10;&#9;&#9;C113.6,304.6,130.3,306,129.9,297.8z M120,299.5c-3,0.2-6-0.5-8.6-1.9c-0.3-0.1-0.7-0.4-0.6-0.7c0-0.2,0.1-0.3,0.2-0.5&#10;&#9;&#9;c1.8-2,4.8-2.8,7.6-2.6c3.2,0.1,6.4,0.7,9.4,1.5C126.9,298,122.6,299.3,120,299.5z" style="fill: rgb(104, 225, 253);"/>
	<path class="st0_ramen-96" d="M118.2,305c-3.2,0-6.3-0.4-9.3-1.3c-2.7-0.9-4.3-2.3-4.8-4.2c-0.4-1.9,0.3-3.9,1.9-5.2&#10;&#9;&#9;c1.4-1.1,3.1-1.9,4.8-2.2c0.5-0.1,12-3,17.4,1c1.5,1.1,2.4,2.8,2.5,4.7l0,0c0.1,1.9-0.7,3.7-2.3,4.8C126,304.3,122,305,118.2,305z&#10;&#9;&#9; M119.6,292.5c-2.9,0-5.7,0.4-8.5,1.1c-1.5,0.3-3,1-4.2,1.9c-1.1,0.9-1.7,2.3-1.4,3.8c0.3,1.3,1.7,2.4,3.9,3.2&#10;&#9;&#9;c3.5,1.2,14,2.2,18.2-0.9c1.2-0.8,1.8-2.2,1.7-3.6l0,0c0-0.7-0.2-1.5-0.6-2.1c-1.2,2.9-5.8,4.3-8.6,4.5c-3.1,0.2-6.2-0.5-9-1.9&#10;&#9;&#9;c-0.9-0.5-1-1.1-1-1.4c0-0.3,0.2-0.6,0.4-0.8c1.8-2,4.7-3,8.1-2.9c3.1,0.1,6.2,0.6,9.1,1.4l-0.5-0.4&#10;&#9;&#9;C125.5,292.9,122.6,292.5,119.6,292.5L119.6,292.5z M111.6,297c0,0,0.1,0.1,0.1,0.1c2.5,1.3,5.4,1.9,8.3,1.8l0,0&#10;&#9;&#9;c2.2-0.2,5.6-1.2,7-3c-2.7-0.7-5.6-1.1-8.4-1.3C115.6,294.4,113.1,295.3,111.6,297L111.6,297z"/>
	<path class="st3_ramen-96 targetColor" d="M329.3,313.1c-0.4-8.1-14.4-6.1-19-5c-1.6,0.3-3.2,1-4.5,2c-1.3,1.1-2,2.8-1.7,4.5c0.5,1.9,2.5,3,4.4,3.7&#10;&#9;&#9;C313,319.9,329.8,321.2,329.3,313.1z M319.5,314.8c-3,0.2-6-0.5-8.6-1.9c-0.3-0.1-0.6-0.4-0.6-0.7c0-0.2,0.1-0.3,0.2-0.4&#10;&#9;&#9;c1.8-2,4.8-2.8,7.5-2.6c3.2,0.1,6.4,0.7,9.4,1.5C326.3,313.3,322,314.6,319.5,314.8z" style="fill: rgb(104, 225, 253);"/>
	<path class="st0_ramen-96" d="M317.6,320.2c-3.2,0-6.3-0.4-9.4-1.3c-2.7-0.9-4.3-2.3-4.8-4.2c-0.4-1.9,0.3-3.9,1.9-5.1&#10;&#9;&#9;c1.4-1.1,3.1-1.9,4.8-2.2c0.5-0.1,12-3,17.4,1c1.5,1.1,2.4,2.8,2.4,4.6l0,0c0.1,1.9-0.7,3.7-2.3,4.8&#10;&#9;&#9;C325.4,319.6,321.5,320.2,317.6,320.2z M319,307.7c-2.9,0-5.7,0.4-8.5,1.1c-1.5,0.3-3,1-4.2,1.9c-1.1,0.9-1.7,2.3-1.4,3.7&#10;&#9;&#9;c0.4,1.4,1.7,2.4,3.9,3.2c3.5,1.2,14,2.2,18.2-0.9c1.2-0.8,1.8-2.2,1.7-3.6c0-0.7-0.2-1.5-0.6-2.1c-1.2,2.9-5.8,4.3-8.5,4.5&#10;&#9;&#9;c-3.1,0.2-6.2-0.5-9-1.9c-0.9-0.5-1-1.1-1-1.4c0.1-0.3,0.2-0.6,0.4-0.8c2.1-2.1,5.1-3.2,8.1-2.9c3.1,0.1,6.2,0.6,9.1,1.4l-0.5-0.4&#10;&#9;&#9;C325,308.2,322.1,307.7,319,307.7z M311,312.2l0.1,0.1c2.5,1.3,5.4,2,8.3,1.8l0,0c2.2-0.2,5.6-1.2,7-3c-2.7-0.7-5.6-1.1-8.4-1.3&#10;&#9;&#9;C315,309.7,312.5,310.5,311,312.2z"/>
	<path class="st3_ramen-96 targetColor" d="M327.2,328.9c-0.4-8.1-14.4-6.1-19-5c-1.6,0.3-3.2,1-4.5,2c-1.3,1.1-2,2.8-1.7,4.5c0.5,1.9,2.5,3,4.4,3.7&#10;&#9;&#9;C310.9,335.7,327.6,337.1,327.2,328.9z M317.3,330.6c-3,0.2-6-0.5-8.6-1.9c-0.3-0.1-0.6-0.4-0.6-0.7c0-0.2,0.1-0.3,0.2-0.4&#10;&#9;&#9;c1.8-2.1,4.8-2.8,7.5-2.6c3.2,0.1,6.3,0.7,9.4,1.5C324.2,329.1,319.9,330.4,317.3,330.6z" style="fill: rgb(104, 225, 253);"/>
	<path class="st0_ramen-96" d="M315.5,336c-3.2,0-6.3-0.4-9.4-1.3c-2.7-0.9-4.3-2.4-4.8-4.2c-0.4-1.9,0.3-3.9,1.9-5.2&#10;&#9;&#9;c1.4-1.1,3.1-1.8,4.8-2.2c4.1-1,13.1-2.2,17.4,1c1.5,1.1,2.4,2.8,2.5,4.7l0,0c0.1,1.9-0.7,3.7-2.3,4.8&#10;&#9;&#9;C323.3,335.4,319.3,336,315.5,336z M316.9,323.5c-2.9,0-5.7,0.4-8.5,1.1c-1.5,0.3-3,1-4.2,1.9c-1.1,0.9-1.7,2.3-1.4,3.8&#10;&#9;&#9;c0.4,1.3,1.7,2.4,3.9,3.2c3.5,1.2,14,2.2,18.2-0.9c1.2-0.8,1.8-2.2,1.7-3.6l0,0c0-0.7-0.2-1.5-0.6-2.1c-1.2,2.9-5.8,4.3-8.5,4.5&#10;&#9;&#9;c-3.1,0.2-6.2-0.5-9-1.9c-0.9-0.5-1-1.1-1-1.4c0.1-0.3,0.2-0.6,0.4-0.8c1.8-2,4.7-3,8.1-2.9c3.1,0.1,6.1,0.6,9.1,1.4&#10;&#9;&#9;c-0.1-0.1-0.3-0.3-0.5-0.4C322.8,324,319.9,323.5,316.9,323.5L316.9,323.5z M308.9,328c0,0,0.1,0.1,0.1,0.1&#10;&#9;&#9;c2.5,1.3,5.4,1.9,8.3,1.8l0,0c2.2-0.2,5.6-1.2,7-3c-2.7-0.7-5.6-1.1-8.4-1.3C312.9,325.5,310.4,326.4,308.9,328z"/>
	<path class="st3_ramen-96 targetColor" d="M298.2,334.8c-0.4-8.1-14.4-6.1-19-5c-1.6,0.3-3.2,1-4.5,2c-1.3,1.1-2,2.8-1.7,4.5c0.5,1.9,2.5,3,4.4,3.7&#10;&#9;&#9;C282,341.5,298.7,342.9,298.2,334.8z M288.4,336.5c-3,0.2-6-0.5-8.6-1.9c-0.3-0.1-0.6-0.4-0.6-0.7c0-0.2,0.1-0.3,0.2-0.4&#10;&#9;&#9;c1.8-2,4.8-2.8,7.5-2.6c3.2,0.1,6.4,0.7,9.4,1.5C295.2,334.9,290.9,336.2,288.4,336.5L288.4,336.5z" style="fill: rgb(104, 225, 253);"/>
	<path class="st0_ramen-96" d="M286.5,341.9c-3.2,0-6.3-0.4-9.4-1.3c-2.7-0.9-4.3-2.3-4.8-4.2c-0.4-1.9,0.3-3.9,1.9-5.2&#10;&#9;&#9;c1.4-1.1,3.1-1.8,4.8-2.2c4.1-1,13.1-2.2,17.4,1c1.5,1.1,2.4,2.8,2.5,4.7l0,0c0.1,1.9-0.7,3.7-2.3,4.8&#10;&#9;&#9;C294.3,341.3,290.4,341.9,286.5,341.9z M287.9,329.4c-2.9,0-5.7,0.4-8.5,1.1c-1.5,0.3-3,1-4.2,1.9c-1.1,0.9-1.7,2.3-1.5,3.8&#10;&#9;&#9;c0.4,1.3,1.7,2.4,3.9,3.2c3.5,1.2,14,2.2,18.2-0.9c1.2-0.8,1.8-2.2,1.7-3.6l0,0c0-0.7-0.2-1.5-0.6-2.1c-1.2,2.9-5.8,4.3-8.5,4.5&#10;&#9;&#9;c-3.1,0.2-6.2-0.5-9-1.9c-0.9-0.5-1-1.1-1-1.4c0.1-0.3,0.2-0.6,0.4-0.8c1.8-2,4.7-3,8.1-2.9c3.1,0.1,6.1,0.6,9.1,1.4&#10;&#9;&#9;c-0.1-0.1-0.3-0.3-0.5-0.4C293.9,329.9,291,329.4,287.9,329.4L287.9,329.4z M279.9,333.9l0.1,0.1c2.5,1.3,5.4,2,8.3,1.8l0,0&#10;&#9;&#9;c2.2-0.2,5.6-1.2,7-3c-2.7-0.7-5.6-1.1-8.4-1.3C283.9,331.4,281.4,332.2,279.9,333.9L279.9,333.9z"/>
	<path class="st3_ramen-96 targetColor" d="M272.3,326.4c-0.4-8.1-14.4-6.1-19-5c-1.6,0.3-3.2,1-4.5,2c-1.3,1.1-2,2.8-1.7,4.5c0.5,1.9,2.5,3,4.4,3.7&#10;&#9;&#9;C256,333.2,272.7,334.5,272.3,326.4z M262.4,328.1c-3,0.2-6-0.5-8.6-1.9c-0.3-0.1-0.6-0.4-0.6-0.7c0-0.2,0.1-0.3,0.2-0.4&#10;&#9;&#9;c1.8-2.1,4.8-2.8,7.5-2.6c3.2,0.1,6.4,0.7,9.4,1.5C269.3,326.6,265,327.9,262.4,328.1z" style="fill: rgb(104, 225, 253);"/>
	<path class="st0_ramen-96" d="M260.6,333.5c-3.2,0-6.3-0.4-9.4-1.3c-2.7-0.9-4.3-2.3-4.8-4.2c-0.4-1.9,0.3-3.9,1.9-5.1&#10;&#9;&#9;c1.4-1.1,3.1-1.9,4.8-2.2c0.5-0.1,12-3,17.4,1c1.5,1.1,2.4,2.8,2.5,4.7l0,0c0.1,1.9-0.7,3.7-2.2,4.8&#10;&#9;&#9;C268.4,332.9,264.4,333.5,260.6,333.5z M262,321c-2.9,0-5.7,0.4-8.5,1.1c-1.5,0.3-3,0.9-4.2,1.9c-1.1,0.9-1.7,2.3-1.4,3.7&#10;&#9;&#9;c0.4,1.4,1.7,2.4,3.9,3.2c3.5,1.2,14,2.2,18.2-0.9c1.2-0.8,1.8-2.2,1.7-3.6l0,0c0-0.7-0.2-1.5-0.6-2.1c-1.2,2.9-5.8,4.3-8.5,4.5&#10;&#9;&#9;c-3.1,0.2-6.2-0.5-9-1.9c-0.9-0.5-1-1.1-1-1.4c0.1-0.3,0.2-0.6,0.4-0.8c2.1-2.1,5.1-3.2,8.1-2.9c3.1,0.1,6.2,0.6,9.1,1.4&#10;&#9;&#9;c-0.1-0.1-0.3-0.3-0.5-0.4C267.9,321.5,265,321,262,321z M254,325.5l0.1,0.1c2.5,1.3,5.4,2,8.3,1.8l0,0c2.2-0.2,5.6-1.2,7-3&#10;&#9;&#9;c-2.7-0.7-5.6-1.1-8.4-1.3C258,323,255.4,323.9,254,325.5L254,325.5z"/>
	<path class="st3_ramen-96 targetColor" d="M255.5,336.3c-0.4-8.1-14.4-6.1-19-5c-1.6,0.3-3.2,1-4.5,2c-1.3,1.1-2,2.8-1.7,4.5c0.5,1.9,2.5,3,4.4,3.7&#10;&#9;&#9;C239.2,343.1,255.9,344.5,255.5,336.3z M245.6,338c-3,0.2-6-0.5-8.6-1.9c-0.3-0.1-0.6-0.4-0.6-0.7c0-0.2,0.1-0.3,0.2-0.4&#10;&#9;&#9;c1.9-2,4.8-2.8,7.6-2.6c3.2,0.1,6.4,0.7,9.4,1.5C252.5,336.5,248.2,337.8,245.6,338z" style="fill: rgb(104, 225, 253);"/>
	<path class="st0_ramen-96" d="M243.8,343.4c-3.2,0-6.3-0.4-9.4-1.3c-2.7-0.9-4.3-2.3-4.8-4.2c-0.4-1.9,0.3-3.9,1.9-5.2&#10;&#9;&#9;c1.4-1.1,3.1-1.8,4.8-2.2c0.5-0.1,12.1-3,17.4,1c1.5,1.1,2.4,2.8,2.5,4.7l0,0c0.1,1.9-0.7,3.7-2.3,4.8&#10;&#9;&#9;C251.6,342.8,247.6,343.4,243.8,343.4z M245.2,331c-2.9,0-5.7,0.4-8.5,1c-1.5,0.3-3,1-4.2,1.9c-1.1,0.9-1.7,2.3-1.4,3.7&#10;&#9;&#9;c0.4,1.4,1.7,2.4,3.9,3.2c3.5,1.2,14.1,2.2,18.2-0.9c1.2-0.8,1.8-2.2,1.7-3.6c0-0.7-0.2-1.5-0.6-2.1c-1.2,2.9-5.8,4.3-8.5,4.5&#10;&#9;&#9;c-3.1,0.2-6.2-0.5-9-1.9c-0.9-0.5-1-1.1-1-1.4c0-0.3,0.2-0.6,0.4-0.8c1.8-2,4.7-3,8.1-2.9c3.1,0.1,6.1,0.6,9.1,1.4&#10;&#9;&#9;c-0.1-0.1-0.3-0.3-0.4-0.4C251.1,331.4,248.2,331,245.2,331L245.2,331z M237.2,335.4l0.1,0.1c2.5,1.3,5.4,2,8.3,1.8l0,0&#10;&#9;&#9;c2.2-0.2,5.6-1.2,7-3c-2.7-0.7-5.6-1.1-8.4-1.3C241.2,332.9,238.6,333.8,237.2,335.4L237.2,335.4z"/>
</g>
<g id="Kamaboko_ramen-96">
	<path class="st0_ramen-96" d="M246,149.8c-0.5,1-1.3,1.8-2.2,2.4c-3.3,2-8.6-0.4-10.8,2.7c-1.6,2.3,0,5.8-1.3,8.3c-1.1,2.1-3.9,2.6-6.2,3.2&#10;&#9;&#9;s-5,1.8-5.2,4.2c-0.3,3.1,3.9,5.9,2.5,8.7c-0.4,0.8-1.2,1.3-1.6,2.1c-1,1.8,0.6,4,2.4,4.9s4,0.9,5.9,1.6c3.6,1.4,3.5,5.7,7.2,7.4&#10;&#9;&#9;c3.1,1.5,6.7,1.7,10,0.8c2.1-0.7,3.7-2.4,5.7-3.2c3.8-1.6,7.3,0.4,11,0c3-0.5,5.8-1.7,8.2-3.6c0.9-0.5,1.5-1.4,1.6-2.4&#10;&#9;&#9;c-0.2-0.8-0.5-1.6-0.9-2.3c-1.1-2.9,1.6-5.8,4.4-7.2s6.1-2.3,7.6-5c2.7-4.8-5.4-3.9-3.5-8.1c0.8-1.8,3.5-2.7,3.4-4.7&#10;&#9;&#9;c-0.1-1.4-1.6-2.3-3.1-2.5s-2.9-0.1-4.1-0.9c-2.6-1.6-1.9-5.9-4-8.1c-1.8-2-5-1.7-7.6-1s-5.4,1.8-7.9,1s-5.1-3.8-7.7-2.7&#10;&#9;&#9;c-0.7,0.3-1.3,0.8-1.7,1.4C247.3,147.7,246.6,148.7,246,149.8z"/>
	<path class="st0_ramen-96" d="M242.8,197.3c-2.2,0-4.5-0.5-6.5-1.4c-1.7-0.9-3.1-2.4-3.9-4.1c-0.9-1.4-1.6-2.7-3.2-3.3&#10;&#9;&#9;c-0.8-0.3-1.7-0.5-2.6-0.7c-1.1-0.2-2.3-0.5-3.3-1c-1.4-0.6-2.4-1.8-2.9-3.2c-0.3-0.9-0.3-1.9,0.2-2.7c0.3-0.4,0.6-0.8,0.9-1.2&#10;&#9;&#9;c0.3-0.3,0.5-0.6,0.7-0.9c0.6-1.1,0-2.2-1-3.9c-0.8-1.3-1.7-2.9-1.6-4.5c0.2-2.3,2.3-4,5.8-4.8l0.3-0.1c2.2-0.5,4.4-1,5.4-2.7&#10;&#9;&#9;c0.5-1.1,0.6-2.4,0.5-3.6c-0.1-1.6-0.1-3.3,0.9-4.7c1.5-2.1,3.9-2.1,6.3-2.1c1.6,0.1,3.2-0.2,4.7-0.8c0.8-0.6,1.4-1.3,1.9-2.2l0,0&#10;&#9;&#9;l0.5-0.9c0.4-0.8,1-1.6,1.5-2.3c0.5-0.7,1.2-1.3,2-1.6c2.1-0.9,4,0.3,5.7,1.3c0.8,0.5,1.6,1,2.5,1.3c2,0.7,4.3,0,6.5-0.7l1-0.3&#10;&#9;&#9;c2.6-0.8,6.2-1.2,8.4,1.2c1,1.2,1.6,2.7,1.9,4.2c0.4,1.6,0.8,3.1,2,3.8c0.8,0.4,1.7,0.6,2.7,0.6c0.4,0,0.8,0.1,1.2,0.1&#10;&#9;&#9;c1.8,0.3,3.6,1.4,3.7,3.2c0.1,1.5-1,2.5-2,3.4c-0.6,0.5-1.1,1-1.5,1.7c-0.6,1.3-0.1,1.8,1.5,2.8c1.5,0.9,3.7,2.3,1.9,5.4&#10;&#9;&#9;c-1.3,2.4-3.8,3.5-6.2,4.5c-0.6,0.3-1.2,0.5-1.7,0.8c-2.6,1.3-4.9,3.9-4,6.2c0.1,0.2,0.2,0.4,0.3,0.7c0.4,0.6,0.6,1.2,0.6,1.9&#10;&#9;&#9;c-0.1,1.3-0.8,2.4-1.9,3c-2.5,1.9-5.5,3.2-8.6,3.7c-1.6,0.1-3.1,0-4.7-0.3c-2.1-0.3-4.1-0.6-6.2,0.2c-0.9,0.4-1.7,0.9-2.5,1.4&#10;&#9;&#9;c-1,0.7-2.1,1.3-3.2,1.8C245.6,197.1,244.2,197.3,242.8,197.3z M250.9,145.7c-0.3,0-0.6,0.1-0.9,0.2c-0.6,0.3-1.1,0.7-1.4,1.3&#10;&#9;&#9;c-0.5,0.6-1,1.3-1.4,2.1c-0.2,0.3-0.4,0.6-0.6,0.9l0,0c-0.6,1.1-1.4,2-2.4,2.7c-1.6,1-3.6,1-5.5,1c-2.2,0-4.1,0.1-5.1,1.5&#10;&#9;&#9;c-0.7,1-0.7,2.4-0.6,3.8c0.2,1.5,0,3-0.6,4.4c-1.2,2.3-4,2.9-6.3,3.5l-0.3,0.1c-1.3,0.3-4.5,1.2-4.7,3.5c-0.1,1.2,0.6,2.4,1.3,3.6&#10;&#9;&#9;c1,1.6,2,3.4,1.1,5.3c-0.2,0.4-0.6,0.9-0.9,1.2c-0.3,0.3-0.5,0.6-0.7,0.9c-0.2,0.5-0.3,1-0.1,1.6c0.4,1,1.2,1.8,2.2,2.3&#10;&#9;&#9;c1,0.4,2,0.7,3,0.9c1,0.2,1.9,0.4,2.8,0.8c2,0.8,3,2.4,3.9,3.9c0.7,1.5,1.9,2.7,3.3,3.5c3.9,2.2,8.8,1.9,12.3-0.9&#10;&#9;&#9;c0.9-0.6,1.8-1.2,2.8-1.6c2.4-1,4.7-0.7,7-0.3c1.4,0.3,2.8,0.4,4.3,0.3c2.8-0.5,5.5-1.7,7.9-3.4c0.9-0.6,1.3-1.2,1.3-1.8&#10;&#9;&#9;c-0.1-0.4-0.2-0.9-0.4-1.2c-0.1-0.3-0.3-0.5-0.4-0.8c-1.2-3.2,1.5-6.5,4.8-8.1c0.6-0.3,1.2-0.6,1.8-0.8c2.3-1,4.4-2,5.5-3.9&#10;&#9;&#9;s0.3-2.4-1.4-3.4c-1.4-0.9-3.3-2.1-2.1-4.7c0.5-0.8,1.1-1.6,1.9-2.2c1-0.9,1.5-1.4,1.5-2.2c-0.1-1-1.3-1.6-2.4-1.8&#10;&#9;&#9;c-0.4-0.1-0.7-0.1-1.1-0.1c-1.2,0-2.3-0.3-3.3-0.9c-1.7-1.1-2.2-2.9-2.7-4.7c-0.2-1.3-0.7-2.5-1.5-3.6c-1.8-1.9-5.1-1.3-6.9-0.8&#10;&#9;&#9;l-1,0.3c-2.4,0.7-4.9,1.5-7.4,0.7c-1-0.4-1.9-0.9-2.8-1.5C253.3,146.4,252.2,145.9,250.9,145.7L250.9,145.7z M246,149.7L246,149.7z&#10;&#9;&#9;"/>
	<path class="st1_ramen-96" d="M244.3,144.4c-0.5,1-1.3,1.8-2.2,2.4c-3.3,2-8.6-0.4-10.8,2.7c-1.6,2.3,0,5.8-1.3,8.3&#10;&#9;&#9;c-1.1,2.1-3.9,2.6-6.2,3.2s-5,1.8-5.2,4.2c-0.3,3.1,3.9,5.9,2.5,8.7c-0.4,0.8-1.2,1.3-1.6,2.1c-1,1.8,0.6,4,2.4,4.9s4,0.9,5.9,1.6&#10;&#9;&#9;c3.6,1.4,3.5,5.7,7.2,7.4c3.1,1.5,6.7,1.7,10,0.8c2.1-0.7,3.7-2.4,5.7-3.2c3.8-1.6,7.3,0.4,11,0c3-0.5,5.8-1.7,8.2-3.6&#10;&#9;&#9;c0.9-0.5,1.5-1.4,1.6-2.4c-0.2-0.8-0.5-1.6-0.9-2.3c-1.1-2.9,1.6-5.8,4.4-7.2s6.1-2.3,7.6-5c2.7-4.9-5.4-3.9-3.5-8.2&#10;&#9;&#9;c0.8-1.8,3.5-2.7,3.4-4.7c-0.1-1.4-1.6-2.3-3-2.5s-2.9-0.1-4.1-0.9c-2.6-1.6-1.9-5.9-4-8.1c-1.8-2-5-1.7-7.6-1s-5.4,1.8-7.9,1&#10;&#9;&#9;s-5.1-3.8-7.7-2.7c-0.7,0.3-1.3,0.8-1.7,1.4C245.5,142.4,244.9,143.4,244.3,144.4z"/>
	<path class="st0_ramen-96" d="M241.1,192c-2.2,0-4.5-0.5-6.5-1.4c-1.7-0.9-3.1-2.4-3.9-4.1c-0.9-1.5-1.6-2.7-3.2-3.3&#10;&#9;&#9;c-0.9-0.3-1.7-0.5-2.6-0.7c-1.1-0.2-2.3-0.5-3.3-1c-1.4-0.6-2.4-1.7-2.9-3.1c-0.3-0.9-0.3-1.9,0.2-2.7c0.2-0.4,0.6-0.8,0.9-1.2&#10;&#9;&#9;c0.3-0.3,0.5-0.6,0.7-0.9c0.6-1.2-0.1-2.4-1-3.9s-1.7-2.9-1.5-4.5c0.2-2.2,2.3-4,5.8-4.8l0.3-0.1c2.2-0.5,4.4-1,5.4-2.7&#10;&#9;&#9;c0.5-1.2,0.6-2.4,0.5-3.7c-0.1-1.6-0.1-3.3,0.9-4.7c1.4-2,3.9-2.1,6.3-2.1c1.7,0,3.4,0,4.7-0.8c0.8-0.6,1.4-1.3,1.9-2.2l0,0&#10;&#9;&#9;c0.2-0.3,0.4-0.6,0.5-0.9c0.4-0.8,1-1.6,1.5-2.3c0.5-0.7,1.2-1.2,2-1.6c2-0.9,3.9,0.2,5.7,1.3c0.8,0.5,1.6,1,2.5,1.3&#10;&#9;&#9;c2,0.7,4.3,0,6.5-0.7l1-0.3c2.6-0.8,6.2-1.2,8.4,1.2c1,1.2,1.6,2.6,1.9,4.2c0.4,1.6,0.8,3.1,2,3.9c0.8,0.4,1.7,0.6,2.7,0.6&#10;&#9;&#9;c0.4,0,0.8,0.1,1.2,0.1c1.7,0.3,3.5,1.4,3.6,3.1c0.1,1.5-1,2.5-2,3.3c-0.6,0.5-1.1,1-1.5,1.7c-0.6,1.4,0,1.9,1.6,2.9&#10;&#9;&#9;s3.6,2.2,1.9,5.4c-1.3,2.3-3.8,3.4-6.1,4.5c-0.6,0.3-1.2,0.5-1.7,0.8c-2.6,1.3-5,4-4,6.3c0.1,0.2,0.2,0.5,0.3,0.7&#10;&#9;&#9;c0.3,0.6,0.6,1.2,0.6,1.9c-0.1,1.3-0.8,2.4-1.9,3c-2.5,1.9-5.5,3.1-8.6,3.7c-1.6,0.1-3.1,0-4.7-0.3c-2.1-0.3-4.1-0.6-6.2,0.2&#10;&#9;&#9;c-0.9,0.4-1.7,0.9-2.5,1.5c-1,0.7-2.1,1.3-3.2,1.8C243.8,191.8,242.5,192,241.1,192z M249.2,140.4c-0.3,0-0.7,0.1-0.9,0.2&#10;&#9;&#9;c-0.6,0.3-1.1,0.7-1.5,1.3c-0.5,0.7-1,1.3-1.4,2.1c-0.2,0.3-0.4,0.6-0.6,0.9l0,0c-0.6,1.1-1.4,2-2.4,2.6c-1.7,0.8-3.6,1.1-5.4,1&#10;&#9;&#9;c-2.2,0-4.1,0.1-5.2,1.5c-0.7,1-0.7,2.4-0.6,3.9c0.2,1.5,0,3-0.6,4.4c-1.2,2.3-3.9,2.9-6.3,3.4l-0.3,0.1c-1.4,0.3-4.5,1.3-4.7,3.6&#10;&#9;&#9;c-0.1,1.2,0.6,2.4,1.4,3.6c1,1.6,2,3.4,1.1,5.3c-0.2,0.4-0.6,0.8-0.9,1.2c-0.3,0.3-0.5,0.6-0.7,0.9c-0.3,0.5-0.3,1.1-0.1,1.6&#10;&#9;&#9;c0.4,1,1.2,1.9,2.2,2.3c1,0.4,2,0.7,3,0.9c1,0.2,1.9,0.4,2.8,0.7c2,0.8,3,2.4,3.9,3.9c0.7,1.5,1.9,2.7,3.3,3.6&#10;&#9;&#9;c3,1.4,6.3,1.7,9.5,0.7c1-0.4,2-0.9,2.9-1.6c0.9-0.6,1.8-1.1,2.8-1.6c2.4-1,4.7-0.7,6.9-0.3c1.4,0.3,2.9,0.4,4.3,0.3&#10;&#9;&#9;c2.9-0.5,5.6-1.7,7.9-3.4c0.9-0.6,1.3-1.2,1.3-1.8c-0.1-0.4-0.2-0.9-0.5-1.2c-0.1-0.3-0.3-0.5-0.4-0.8c-1.2-3.1,1.4-6.4,4.7-8.1&#10;&#9;&#9;c0.6-0.3,1.2-0.6,1.8-0.8c2.3-1,4.4-2,5.5-3.9s0.3-2.4-1.4-3.5c-1.4-0.9-3.3-2-2.1-4.6c0.5-0.8,1.1-1.6,1.8-2.2&#10;&#9;&#9;c0.8-0.8,1.5-1.4,1.5-2.2c-0.1-1-1.3-1.7-2.5-1.8c-0.4-0.1-0.7-0.1-1.1-0.1c-1.1,0-2.3-0.3-3.3-0.9c-1.7-1-2.2-2.9-2.6-4.7&#10;&#9;&#9;c-0.2-1.3-0.8-2.5-1.5-3.6c-1.8-1.9-5.1-1.3-7-0.8l-1,0.3c-2.4,0.7-4.9,1.5-7.4,0.7c-1-0.4-1.9-0.9-2.8-1.5&#10;&#9;&#9;C251.6,141.1,250.5,140.6,249.2,140.4L249.2,140.4z M244.3,144.5L244.3,144.5z"/>
	<path class="st3_ramen-96 targetColor" d="M272,159.1c-3.1-8.5-14.4-10.4-22.2-8.5c-4.1,0.9-7.8,3.4-10.1,6.9c-2.1,3.2-3,7.8-1.1,11.4&#10;&#9;&#9;c2.1,3.9,7.8,4.1,11.6,3.3c4.2-0.9,7.8-3.6,10-7.3c0.4-0.7,0.3-1.6-0.3-2.2c-3.8-3.8-9.9-4.1-14.1-0.7c-1.8,1.4,0.8,4,2.6,2.6&#10;&#9;&#9;c2.3-1.7,5.4-1.7,7.8-0.2c-1.5,1.9-3.4,3.3-5.7,4c-2.2,0.7-6.5,1.3-8.3-0.7c-1.9-2.2-0.5-6.3,0.9-8.4c1.9-2.7,4.8-4.5,8.1-5.1&#10;&#9;&#9;c5.8-1.3,15.8-0.2,17.7,6.7c0.9,3.3-1.3,5.9-3.6,8c-2.4,2.2-5.1,4.1-8,5.5c-6.6,3.3-14.1,4.2-21.4,2.7c-2.3-0.5-3.3,3-1,3.5&#10;&#9;&#9;c8.1,1.7,16.6,0.7,24.1-3C265.3,174.4,275,167.4,272,159.1z" style="fill: rgb(104, 225, 253);"/>
</g>
</svg>